<svg version="1.1" xmlns="http://www.w3.org/2000/svg" viewBox="0 0 669.7105491427735 132.71135316636048" width="669.7105491427735" height="132.71135316636048">
  <!-- svg-source:excalidraw -->
  <metadata></metadata>
  <defs>
    <style class="style-fonts"></style>
  </defs>
  <g stroke-linecap="round">
    <g transform="translate(10 122.71135316636048) rotate(0 324.85527457138676 0)">
      <path d="M0 0 C108.29 0, 541.43 0, 649.71 0 M0 0 C108.29 0, 541.43 0, 649.71 0" stroke="#101523" stroke-width="3" fill="none"></path>
    </g>
  </g>
  <mask></mask>
  <g stroke-linecap="round">
    <g transform="translate(387.18342119036333 99.5451856236499) rotate(0 36.0299938274469 0)">
      <path d="M0 0 C12.01 0, 60.05 0, 72.06 0 M0 0 C12.01 0, 60.05 0, 72.06 0" stroke="#101523" stroke-width="3" fill="none"></path>
    </g>
  </g>
  <mask></mask>
  <g stroke-linecap="round">
    <g transform="translate(459.32945784525737 99.54518575855184) rotate(0 18.630143149801825 -9.227193541175438)">
      <path d="M0 0 C0.7 -2.34, 1.26 -10.98, 4.22 -14.06 C7.18 -17.14, 13.15 -18.48, 17.75 -18.45 C22.35 -18.43, 28.56 -16.76, 31.81 -13.88 C35.06 -11.01, 36.35 -3.34, 37.26 -1.23 M0 0 C0.7 -2.34, 1.26 -10.98, 4.22 -14.06 C7.18 -17.14, 13.15 -18.48, 17.75 -18.45 C22.35 -18.43, 28.56 -16.76, 31.81 -13.88 C35.06 -11.01, 36.35 -3.34, 37.26 -1.23" stroke="#101523" stroke-width="3" fill="none"></path>
    </g>
  </g>
  <mask></mask>
  <g stroke-linecap="round">
    <g transform="translate(349.83708578957066 100.59972139888521) rotate(0 18.630143149801825 -9.227193541175438)">
      <path d="M0 0 C0.7 -2.34, 1.26 -10.98, 4.22 -14.06 C7.18 -17.14, 13.15 -18.48, 17.75 -18.45 C22.35 -18.43, 28.56 -16.76, 31.81 -13.88 C35.06 -11.01, 36.35 -3.34, 37.26 -1.23 M0 0 C0.7 -2.34, 1.26 -10.98, 4.22 -14.06 C7.18 -17.14, 13.15 -18.48, 17.75 -18.45 C22.35 -18.43, 28.56 -16.76, 31.81 -13.88 C35.06 -11.01, 36.35 -3.34, 37.26 -1.23" stroke="#101523" stroke-width="3" fill="none"></path>
    </g>
  </g>
  <mask></mask>
  <g stroke-linecap="round">
    <g transform="translate(496.8279543436115 98.58857506682125) rotate(0 4.481573367170995 0)">
      <path d="M0 0 C1.49 0, 7.47 0, 8.96 0 M0 0 C1.49 0, 7.47 0, 8.96 0" stroke="#101523" stroke-width="3" fill="none"></path>
    </g>
  </g>
  <mask></mask>
  <g stroke-linecap="round">
    <g transform="translate(506.2984489978778 98.41945909351318) rotate(0 -83.12050088092508 -38.19985463118246)">
      <path d="M0 0 C0 -8.1, 0 -16.2, 0 -25.37 M0 0 C0 -8.11, 0 -16.22, 0 -25.37 M0 -25.37 C-10.8 -44.07, -21.6 -62.78, -30.93 -78.94 M0 -25.37 C-7.09 -37.65, -14.19 -49.94, -30.93 -78.94 M-30.93 -78.94 C-41.17 -78.94, -51.41 -78.94, -59.7 -78.94 M-30.93 -78.94 C-37.41 -78.94, -43.9 -78.94, -59.7 -78.94 M-59.7 -78.94 C-59.7 -65.57, -59.7 -52.2, -59.7 -26.38 M-59.7 -78.94 C-59.7 -60.13, -59.7 -41.32, -59.7 -26.38 M-59.7 -26.38 C-99.37 -26.38, -139.04 -26.38, -166.24 -26.38 M-59.7 -26.38 C-92.06 -26.38, -124.43 -26.38, -166.24 -26.38 M-166.24 -26.38 C-166.24 -17.14, -166.24 -7.9, -166.24 2.54 M-166.24 -26.38 C-166.24 -14.83, -166.24 -3.28, -166.24 2.54 M-166.24 2.54 C-163.77 2.54, -161.3 2.54, -156.6 2.54 M-166.24 2.54 C-163.63 2.54, -161.02 2.54, -156.6 2.54" stroke="#101523" stroke-width="3" fill="none"></path>
    </g>
  </g>
  <mask></mask>
  <g stroke-linecap="round" transform="translate(355.29463716400403 85.4159819691597) rotate(0 13.172592576980605 13.172592576980605)">
    <path d="M26.35 13.17 C26.35 13.94, 26.28 14.71, 26.15 15.46 C26.01 16.21, 25.81 16.96, 25.55 17.68 C25.29 18.39, 24.96 19.1, 24.58 19.76 C24.2 20.42, 23.75 21.06, 23.26 21.64 C22.77 22.22, 22.22 22.77, 21.64 23.26 C21.06 23.75, 20.42 24.2, 19.76 24.58 C19.1 24.96, 18.39 25.29, 17.68 25.55 C16.96 25.81, 16.21 26.01, 15.46 26.15 C14.71 26.28, 13.94 26.35, 13.17 26.35 C12.41 26.35, 11.64 26.28, 10.89 26.15 C10.13 26.01, 9.38 25.81, 8.67 25.55 C7.95 25.29, 7.25 24.96, 6.59 24.58 C5.93 24.2, 5.29 23.75, 4.71 23.26 C4.12 22.77, 3.57 22.22, 3.08 21.64 C2.59 21.06, 2.15 20.42, 1.76 19.76 C1.38 19.1, 1.06 18.39, 0.79 17.68 C0.53 16.96, 0.33 16.21, 0.2 15.46 C0.07 14.71, 0 13.94, 0 13.17 C0 12.41, 0.07 11.64, 0.2 10.89 C0.33 10.13, 0.53 9.38, 0.79 8.67 C1.06 7.95, 1.38 7.25, 1.76 6.59 C2.15 5.93, 2.59 5.29, 3.08 4.71 C3.57 4.12, 4.12 3.57, 4.71 3.08 C5.29 2.59, 5.93 2.15, 6.59 1.76 C7.25 1.38, 7.95 1.06, 8.67 0.79 C9.38 0.53, 10.13 0.33, 10.89 0.2 C11.64 0.07, 12.41 0, 13.17 0 C13.94 0, 14.71 0.07, 15.46 0.2 C16.21 0.33, 16.96 0.53, 17.68 0.79 C18.39 1.06, 19.1 1.38, 19.76 1.76 C20.42 2.15, 21.06 2.59, 21.64 3.08 C22.22 3.57, 22.77 4.12, 23.26 4.71 C23.75 5.29, 24.2 5.93, 24.58 6.59 C24.96 7.25, 25.29 7.95, 25.55 8.67 C25.81 9.38, 26.01 10.13, 26.15 10.89 C26.28 11.64, 26.31 12.79, 26.35 13.17 C26.38 13.55, 26.38 12.79, 26.35 13.17" stroke="#101523" stroke-width="3" fill="none"></path>
  </g>
  <g stroke-linecap="round" transform="translate(464.78700886690194 85.41598222292157) rotate(0 13.172592576980605 13.172592576980605)">
    <path d="M26.35 13.17 C26.35 13.94, 26.28 14.71, 26.15 15.46 C26.01 16.21, 25.81 16.96, 25.55 17.68 C25.29 18.39, 24.96 19.1, 24.58 19.76 C24.2 20.42, 23.75 21.06, 23.26 21.64 C22.77 22.22, 22.22 22.77, 21.64 23.26 C21.06 23.75, 20.42 24.2, 19.76 24.58 C19.1 24.96, 18.39 25.29, 17.68 25.55 C16.96 25.81, 16.21 26.01, 15.46 26.15 C14.71 26.28, 13.94 26.35, 13.17 26.35 C12.41 26.35, 11.64 26.28, 10.89 26.15 C10.13 26.01, 9.38 25.81, 8.67 25.55 C7.95 25.29, 7.25 24.96, 6.59 24.58 C5.93 24.2, 5.29 23.75, 4.71 23.26 C4.12 22.77, 3.57 22.22, 3.08 21.64 C2.59 21.06, 2.15 20.42, 1.76 19.76 C1.38 19.1, 1.06 18.39, 0.79 17.68 C0.53 16.96, 0.33 16.21, 0.2 15.46 C0.07 14.71, 0 13.94, 0 13.17 C0 12.41, 0.07 11.64, 0.2 10.89 C0.33 10.13, 0.53 9.38, 0.79 8.67 C1.06 7.95, 1.38 7.25, 1.76 6.59 C2.15 5.93, 2.59 5.29, 3.08 4.71 C3.57 4.12, 4.12 3.57, 4.71 3.08 C5.29 2.59, 5.93 2.15, 6.59 1.76 C7.25 1.38, 7.95 1.06, 8.67 0.79 C9.38 0.53, 10.13 0.33, 10.89 0.2 C11.64 0.07, 12.41 0, 13.17 0 C13.94 0, 14.71 0.07, 15.46 0.2 C16.21 0.33, 16.96 0.53, 17.68 0.79 C18.39 1.06, 19.1 1.38, 19.76 1.76 C20.42 2.15, 21.06 2.59, 21.64 3.08 C22.22 3.57, 22.77 4.12, 23.26 4.71 C23.75 5.29, 24.2 5.93, 24.58 6.59 C24.96 7.25, 25.29 7.95, 25.55 8.67 C25.81 9.38, 26.01 10.13, 26.15 10.89 C26.28 11.64, 26.31 12.79, 26.35 13.17 C26.38 13.55, 26.38 12.79, 26.35 13.17" stroke="#101523" stroke-width="3" fill="none"></path>
  </g>
  <g stroke-linecap="round" transform="translate(340.05744734361156 10) rotate(0 51.354392392396846 28.902557536440497)">
    <path d="M0 0 C36.39 0, 72.78 0, 102.71 0 M0 0 C35.5 0, 71 0, 102.71 0 M102.71 0 C102.71 21.44, 102.71 42.88, 102.71 57.81 M102.71 0 C102.71 19.75, 102.71 39.51, 102.71 57.81 M102.71 57.81 C63.28 57.81, 23.85 57.81, 0 57.81 M102.71 57.81 C77.73 57.81, 52.76 57.81, 0 57.81 M0 57.81 C0 36.67, 0 15.53, 0 0 M0 57.81 C0 44.88, 0 31.96, 0 0" stroke="#101523" stroke-width="3" fill="none"></path>
  </g>
  <g stroke-linecap="round">
    <g transform="translate(472.24443961629686 22.864519451305682) rotate(0 5.715161757222916 22.470297747987615)">
      <path d="M0 0 C8.89 15.24, 17.78 30.49, 26.21 44.94 M0 0 C5.73 9.82, 11.46 19.64, 26.21 44.94 M26.21 44.94 C14.34 43.37, 2.46 41.8, -13.93 39.63 M26.21 44.94 C13.49 43.26, 0.76 41.57, -13.93 39.63 M-13.93 39.63 C-14.25 24.59, -14.58 9.55, -14.78 0 M-13.93 39.63 C-14.22 26.03, -14.51 12.43, -14.78 0 M-14.78 0 C-10.91 0, -7.04 0, 0 0 M-14.78 0 C-11.04 0, -7.3 0, 0 0" stroke="#101523" stroke-width="3" fill="none"></path>
    </g>
  </g>
  <mask></mask>
  <g stroke-linecap="round">
    <g transform="translate(332.7481818982649 15.204373227431006) rotate(0 -60.15793728648538 1.9863471692264625)">
      <path d="M0 0 C-10.36 0.66, -42.09 3.97, -62.14 3.97 C-82.2 3.97, -110.62 0.66, -120.32 0" stroke="#101523" stroke-width="2.5" fill="none" stroke-dasharray="8 10"></path>
    </g>
  </g>
  <mask></mask>
  <g stroke-linecap="round">
    <g transform="translate(332.7481826508913 98.58857413125861) rotate(0 -42.13893292774026 -1.2769373620099032)">
      <path d="M0 0 C-7.47 -0.43, -30.79 -2.55, -44.83 -2.55 C-58.88 -2.55, -77.7 -0.43, -84.28 0" stroke="#101523" stroke-width="2.5" fill="none" stroke-dasharray="8 10"></path>
    </g>
  </g>
  <mask></mask>
  <g stroke-linecap="round">
    <g transform="translate(333.528531772768 38.902556870114836) rotate(0 -85.0582156266687 1.7715734080067023)">
      <path d="M0 0 C-14.37 0.59, -57.84 3.54, -86.19 3.54 C-114.55 3.54, -156.13 0.59, -170.12 0" stroke="#101523" stroke-width="2.5" fill="none" stroke-dasharray="8 10"></path>
    </g>
  </g>
  <mask></mask>
  <g stroke-linecap="round">
    <g transform="translate(332.74818209654063 73.51784645668545) rotate(0 -77.04188646874383 -2.553874643157485)">
      <path d="M0 0 C-12.72 -0.85, -50.65 -5.11, -76.33 -5.11 C-102.01 -5.11, -141.13 -0.85, -154.08 0" stroke="#101523" stroke-width="2.5" fill="none" stroke-dasharray="8 10"></path>
    </g>
  </g>
  <mask></mask>
</svg>