<svg version="1.1" xmlns="http://www.w3.org/2000/svg" viewBox="0 0 126.82179310263177 57.748281296271955" width="126.82179310263177" height="57.748281296271955">
  <!-- svg-source:excalidraw -->
  <metadata></metadata>
  <defs>
    <style class="style-fonts"></style>
  </defs>
  <g stroke-linecap="round">
    <g transform="translate(10 10.000000183926886) rotate(0 14.181202209603839 18.74767279977931)">
      <path d="M0 0 C7.81 10.33, 15.63 20.66, 28.36 37.5 M0 0 C9.73 12.86, 19.45 25.72, 28.36 37.5" stroke="#8b8986" stroke-width="1" fill="none"></path>
    </g>
  </g>
  <mask></mask>
  <g stroke-linecap="round">
    <g transform="translate(116.82179310263177 10) rotate(0 -14.816173265856833 18.874140648135977)">
      <path d="M0 0 C-7.1 9.05, -14.2 18.09, -29.63 37.75 M0 0 C-8.71 11.1, -17.43 22.2, -29.63 37.75" stroke="#8b8986" stroke-width="1" fill="none"></path>
    </g>
  </g>
  <mask></mask>
  <g stroke-linecap="round">
    <g transform="translate(38.18860725395916 47.55514954682894) rotate(0 24.53682249130202 0)">
      <path d="M0 0 C12.73 0, 25.46 0, 49.07 0 M0 0 C17.73 0, 35.47 0, 49.07 0" stroke="#8b8986" stroke-width="1" fill="none"></path>
    </g>
  </g>
  <mask></mask>
</svg>