<svg id="visual" viewBox="0 0 900 600" width="900" height="600" xmlns="http://www.w3.org/2000/svg" xmlns:xlink="http://www.w3.org/1999/xlink" version="1.1"><rect x="0" y="0" width="900" height="600" fill="#003566"></rect><g transform="translate(445.57990509893256 291.6039953665255)"><path d="M73.8 -132C95.6 -115.2 113.2 -95.4 137.7 -72.8C162.2 -50.3 193.6 -25.2 200.7 4.1C207.7 33.3 190.5 66.7 165.5 88.3C140.5 110 107.7 119.9 78.9 134.3C50 148.6 25 167.3 -6.1 177.8C-37.2 188.4 -74.3 190.7 -105.7 177.8C-137 164.9 -162.5 136.7 -177.9 104.5C-193.3 72.3 -198.6 36.2 -187.6 6.4C-176.6 -23.4 -149.2 -46.9 -131.2 -74.6C-113.2 -102.3 -104.6 -134.3 -84.3 -151.9C-64 -169.5 -32 -172.8 -3 -167.6C26 -162.4 52 -148.7 73.8 -132" fill="none" stroke="#4976a0" stroke-width="6"></path></g></svg>