<svg width="127" height="100" viewBox="0 0 127 100" fill="none" xmlns="http://www.w3.org/2000/svg">
    <g id="triangles">
        <g id="darkGroup">
            <path id="dark1" opacity="0.67" d="M62 47.768C63.3333 48.5378 63.3333 50.4623 62 51.2321L28.25 70.7176C26.9167 71.4874 25.25 70.5252 25.25 68.9856L25.25 30.0144C25.25 28.4748 26.9167 27.5126 28.25 28.2824L62 47.768Z" fill="#635BFF"/>
            <path id="dark2" opacity="0.67" d="M50 47.7679C51.3333 48.5378 51.3333 50.4623 50 51.2321L16.25 70.7176C14.9167 71.4874 13.25 70.5252 13.25 68.9856L13.25 30.0144C13.25 28.4748 14.9167 27.5126 16.25 28.2824L50 47.7679Z" fill="#635BFF"/>
        </g>
        <g id="lightGroup">
            <path id="light1" opacity="0.67" d="M50 47.7679C51.3333 48.5378 51.3333 50.4623 50 51.2321L16.25 70.7176C14.9167 71.4874 13.25 70.5252 13.25 68.9856L13.25 30.0144C13.25 28.4748 14.9167 27.5126 16.25 28.2824L50 47.7679Z" fill="#43C4ED"/>
        </g>
    </g>
</svg>
