<svg version="1.1" xmlns="http://www.w3.org/2000/svg" viewBox="0 0 158.63719002206392 194.81321586668307" width="158.63719002206392" height="194.81321586668307">
  <!-- svg-source:excalidraw -->
  <metadata></metadata>
  <defs>
    <style class="style-fonts"></style>
  </defs>
  <g stroke-linecap="round" transform="translate(10 162.22766275877325) rotate(0 69.31859501103196 11.292776553954909)">
    <path d="M0 0 C28.52 0, 57.03 0, 138.64 0 M0 0 C53.24 0, 106.48 0, 138.64 0 M138.64 0 C138.64 6.3, 138.64 12.59, 138.64 22.59 M138.64 0 C138.64 6.55, 138.64 13.11, 138.64 22.59 M138.64 22.59 C88.37 22.59, 38.1 22.59, 0 22.59 M138.64 22.59 C84.32 22.59, 30 22.59, 0 22.59 M0 22.59 C0 13.78, 0 4.98, 0 0 M0 22.59 C0 16.99, 0 11.4, 0 0" stroke="#1971c2" stroke-width="6" fill="none"></path>
  </g>
  <g stroke-linecap="round" transform="translate(24.29027087709551 59.71137186345245) rotate(0 12.181758324423186 47.154723292154166)">
    <path d="M6.09 0 C10.11 0, 14.13 0, 18.27 0 M6.09 0 C9.09 0, 12.09 0, 18.27 0 M18.27 0 C22.33 0, 24.36 2.03, 24.36 6.09 M18.27 0 C22.33 0, 24.36 2.03, 24.36 6.09 M24.36 6.09 C24.36 27.03, 24.36 47.97, 24.36 88.22 M24.36 6.09 C24.36 30, 24.36 53.92, 24.36 88.22 M24.36 88.22 C24.36 92.28, 22.33 94.31, 18.27 94.31 M24.36 88.22 C24.36 92.28, 22.33 94.31, 18.27 94.31 M18.27 94.31 C15.64 94.31, 13 94.31, 6.09 94.31 M18.27 94.31 C14.44 94.31, 10.61 94.31, 6.09 94.31 M6.09 94.31 C2.03 94.31, 0 92.28, 0 88.22 M6.09 94.31 C2.03 94.31, 0 92.28, 0 88.22 M0 88.22 C0 69.68, 0 51.14, 0 6.09 M0 88.22 C0 66.79, 0 45.37, 0 6.09 M0 6.09 C0 2.03, 2.03 0, 6.09 0 M0 6.09 C0 2.03, 2.03 0, 6.09 0" stroke="#1971c2" stroke-width="6" fill="none"></path>
  </g>
  <g stroke-linecap="round">
    <g transform="translate(10.000000410078428 51.504530969204275) rotate(0 68.90508034791259 -20.752265484602137)">
      <path d="M0 0 C21.66 -12.5, 43.31 -25.01, 71.89 -41.5 M0 0 C28.61 -16.52, 57.23 -33.04, 71.89 -41.5 M71.89 -41.5 C96.76 -25.9, 121.63 -10.29, 137.81 -0.14 M71.89 -41.5 C88.35 -31.17, 104.81 -20.85, 137.81 -0.14 M137.81 -0.14 C89.96 -0.09, 42.12 -0.04, 0 0 M137.81 -0.14 C100.27 -0.1, 62.74 -0.07, 0 0" stroke="#1971c2" stroke-width="6" fill="none"></path>
    </g>
  </g>
  <mask></mask>
  <g stroke-linecap="round" transform="translate(66.72332302380744 59.71137204496447) rotate(0 12.181758324423186 47.15472329215417)">
    <path d="M6.09 0 C10.86 0, 15.64 0, 18.27 0 M6.09 0 C8.82 0, 11.55 0, 18.27 0 M18.27 0 C22.33 0, 24.36 2.03, 24.36 6.09 M18.27 0 C22.33 0, 24.36 2.03, 24.36 6.09 M24.36 6.09 C24.36 37.7, 24.36 69.3, 24.36 88.22 M24.36 6.09 C24.36 37.69, 24.36 69.3, 24.36 88.22 M24.36 88.22 C24.36 92.28, 22.33 94.31, 18.27 94.31 M24.36 88.22 C24.36 92.28, 22.33 94.31, 18.27 94.31 M18.27 94.31 C15.53 94.31, 12.78 94.31, 6.09 94.31 M18.27 94.31 C14.8 94.31, 11.33 94.31, 6.09 94.31 M6.09 94.31 C2.03 94.31, 0 92.28, 0 88.22 M6.09 94.31 C2.03 94.31, 0 92.28, 0 88.22 M0 88.22 C0 71.27, 0 54.31, 0 6.09 M0 88.22 C0 64.64, 0 41.07, 0 6.09 M0 6.09 C0 2.03, 2.03 0, 6.09 0 M0 6.09 C0 2.03, 2.03 0, 6.09 0" stroke="#1971c2" stroke-width="6" fill="none"></path>
  </g>
  <g stroke-linecap="round" transform="translate(109.15637529391859 59.71137153728626) rotate(0 12.181758324423186 47.15472329215416)">
    <path d="M6.09 0 C8.6 0, 11.12 0, 18.27 0 M6.09 0 C8.61 0, 11.12 0, 18.27 0 M18.27 0 C22.33 0, 24.36 2.03, 24.36 6.09 M18.27 0 C22.33 0, 24.36 2.03, 24.36 6.09 M24.36 6.09 C24.36 32.91, 24.36 59.74, 24.36 88.22 M24.36 6.09 C24.36 27.9, 24.36 49.71, 24.36 88.22 M24.36 88.22 C24.36 92.28, 22.33 94.31, 18.27 94.31 M24.36 88.22 C24.36 92.28, 22.33 94.31, 18.27 94.31 M18.27 94.31 C14.18 94.31, 10.08 94.31, 6.09 94.31 M18.27 94.31 C15.39 94.31, 12.52 94.31, 6.09 94.31 M6.09 94.31 C2.03 94.31, 0 92.28, 0 88.22 M6.09 94.31 C2.03 94.31, 0 92.28, 0 88.22 M0 88.22 C0 66.54, 0 44.87, 0 6.09 M0 88.22 C0 63.83, 0 39.45, 0 6.09 M0 6.09 C0 2.03, 2.03 0, 6.09 0 M0 6.09 C0 2.03, 2.03 0, 6.09 0" stroke="#1971c2" stroke-width="6" fill="none"></path>
  </g>
</svg>