<svg version="1.1" xmlns="http://www.w3.org/2000/svg" viewBox="0 0 1377.569358223028 42.20504441920389" width="1377.569358223028" height="42.20504441920389">
  <!-- svg-source:excalidraw -->
  <g stroke-linecap="round">
    <g transform="translate(10 10.382792584580557) rotate(0 0 10.719724253287609)">
      <path d="M0 0 C0 3.57, 0 17.87, 0 21.44 M0 0 C0 3.57, 0 17.87, 0 21.44" stroke="#101523" stroke-width="2" fill="none"></path>
    </g>
  </g>
  <mask></mask>
  <g stroke-linecap="round">
    <g transform="translate(21.408145752534892 10.382792095473064) rotate(0 0 6.58918804703336)">
      <path d="M0 0 C0 2.2, 0 10.98, 0 13.18 M0 0 C0 2.2, 0 10.98, 0 13.18" stroke="#101523" stroke-width="2" fill="none"></path>
    </g>
  </g>
  <mask></mask>
  <g stroke-linecap="round">
    <g transform="translate(32.81629216935994 10.382793132366942) rotate(0 0 6.58918804703336)">
      <path d="M0 0 C0 2.2, 0 10.98, 0 13.18 M0 0 C0 2.2, 0 10.98, 0 13.18" stroke="#101523" stroke-width="2" fill="none"></path>
    </g>
  </g>
  <mask></mask>
  <g stroke-linecap="round">
    <g transform="translate(44.22443774390081 10.382792791914198) rotate(0 0 6.58918804703336)">
      <path d="M0 0 C0 2.2, 0 10.98, 0 13.18 M0 0 C0 2.2, 0 10.98, 0 13.18" stroke="#101523" stroke-width="2" fill="none"></path>
    </g>
  </g>
  <mask></mask>
  <g stroke-linecap="round">
    <g transform="translate(55.63258416072563 10.38279382880819) rotate(0 0 6.58918804703336)">
      <path d="M0 0 C0 2.2, 0 10.98, 0 13.18 M0 0 C0 2.2, 0 10.98, 0 13.18" stroke="#101523" stroke-width="2" fill="none"></path>
    </g>
  </g>
  <mask></mask>
  <g stroke-linecap="round">
    <g transform="translate(67.0407302959045 10.00000091306174) rotate(0 0 10.719724253287609)">
      <path d="M0 0 C0 3.57, 0 17.87, 0 21.44 M0 0 C0 3.57, 0 17.87, 0 21.44" stroke="#101523" stroke-width="2" fill="none"></path>
    </g>
  </g>
  <mask></mask>
  <g stroke-linecap="round">
    <g transform="translate(78.44887604843939 10.000000423954134) rotate(0 0 6.58918804703336)">
      <path d="M0 0 C0 2.2, 0 10.98, 0 13.18 M0 0 C0 2.2, 0 10.98, 0 13.18" stroke="#101523" stroke-width="2" fill="none"></path>
    </g>
  </g>
  <mask></mask>
  <g stroke-linecap="round">
    <g transform="translate(89.85702246526466 10.000001460848125) rotate(0 0 6.58918804703336)">
      <path d="M0 0 C0 2.2, 0 10.98, 0 13.18 M0 0 C0 2.2, 0 10.98, 0 13.18" stroke="#101523" stroke-width="2" fill="none"></path>
    </g>
  </g>
  <mask></mask>
  <g stroke-linecap="round">
    <g transform="translate(101.26516803980553 10.000001120395382) rotate(0 0 6.58918804703336)">
      <path d="M0 0 C0 2.2, 0 10.98, 0 13.18 M0 0 C0 2.2, 0 10.98, 0 13.18" stroke="#101523" stroke-width="2" fill="none"></path>
    </g>
  </g>
  <mask></mask>
  <g stroke-linecap="round">
    <g transform="translate(112.67331445663035 10.000002157289373) rotate(0 0 6.58918804703336)">
      <path d="M0 0 C0 2.2, 0 10.98, 0 13.18 M0 0 C0 2.2, 0 10.98, 0 13.18" stroke="#101523" stroke-width="2" fill="none"></path>
    </g>
  </g>
  <mask></mask>
  <g stroke-linecap="round">
    <g transform="translate(124.08146024259509 10.382793923201234) rotate(0 0 10.719724253287609)">
      <path d="M0 0 C0 3.57, 0 17.87, 0 21.44 M0 0 C0 3.57, 0 17.87, 0 21.44" stroke="#101523" stroke-width="2" fill="none"></path>
    </g>
  </g>
  <mask></mask>
  <g stroke-linecap="round">
    <g transform="translate(135.48960599512998 10.382793434093855) rotate(0 0 6.58918804703336)">
      <path d="M0 0 C0 2.2, 0 10.98, 0 13.18 M0 0 C0 2.2, 0 10.98, 0 13.18" stroke="#101523" stroke-width="2" fill="none"></path>
    </g>
  </g>
  <mask></mask>
  <g stroke-linecap="round">
    <g transform="translate(146.8977524119548 10.38279447098762) rotate(0 0 6.58918804703336)">
      <path d="M0 0 C0 2.2, 0 10.98, 0 13.18 M0 0 C0 2.2, 0 10.98, 0 13.18" stroke="#101523" stroke-width="2" fill="none"></path>
    </g>
  </g>
  <mask></mask>
  <g stroke-linecap="round">
    <g transform="translate(158.30589798649567 10.382794130534876) rotate(0 0 6.58918804703336)">
      <path d="M0 0 C0 2.2, 0 10.98, 0 13.18 M0 0 C0 2.2, 0 10.98, 0 13.18" stroke="#101523" stroke-width="2" fill="none"></path>
    </g>
  </g>
  <mask></mask>
  <g stroke-linecap="round">
    <g transform="translate(169.7140444033205 10.382795167428867) rotate(0 0 6.58918804703336)">
      <path d="M0 0 C0 2.2, 0 10.98, 0 13.18 M0 0 C0 2.2, 0 10.98, 0 13.18" stroke="#101523" stroke-width="2" fill="none"></path>
    </g>
  </g>
  <mask></mask>
  <g stroke-linecap="round">
    <g transform="translate(181.12218996922843 10.382792726433536) rotate(0 0 10.719724253287609)">
      <path d="M0 0 C0 3.57, 0 17.87, 0 21.44 M0 0 C0 3.57, 0 17.87, 0 21.44" stroke="#101523" stroke-width="2" fill="none"></path>
    </g>
  </g>
  <mask></mask>
  <g stroke-linecap="round">
    <g transform="translate(192.53033572176332 10.382792237326157) rotate(0 0 6.58918804703336)">
      <path d="M0 0 C0 2.2, 0 10.98, 0 13.18 M0 0 C0 2.2, 0 10.98, 0 13.18" stroke="#101523" stroke-width="2" fill="none"></path>
    </g>
  </g>
  <mask></mask>
  <g stroke-linecap="round">
    <g transform="translate(203.93848213858814 10.382793274219921) rotate(0 0 6.58918804703336)">
      <path d="M0 0 C0 2.2, 0 10.98, 0 13.18 M0 0 C0 2.2, 0 10.98, 0 13.18" stroke="#101523" stroke-width="2" fill="none"></path>
    </g>
  </g>
  <mask></mask>
  <g stroke-linecap="round">
    <g transform="translate(215.346627713129 10.382792933767178) rotate(0 0 6.58918804703336)">
      <path d="M0 0 C0 2.2, 0 10.98, 0 13.18 M0 0 C0 2.2, 0 10.98, 0 13.18" stroke="#101523" stroke-width="2" fill="none"></path>
    </g>
  </g>
  <mask></mask>
  <g stroke-linecap="round">
    <g transform="translate(226.75477412995383 10.382793970661169) rotate(0 0 6.58918804703336)">
      <path d="M0 0 C0 2.2, 0 10.98, 0 13.18 M0 0 C0 2.2, 0 10.98, 0 13.18" stroke="#101523" stroke-width="2" fill="none"></path>
    </g>
  </g>
  <mask></mask>
  <g stroke-linecap="round">
    <g transform="translate(238.16292067708832 10.000000944985345) rotate(0 0 10.719724253287609)">
      <path d="M0 0 C0 3.57, 0 17.87, 0 21.44 M0 0 C0 3.57, 0 17.87, 0 21.44" stroke="#101523" stroke-width="2" fill="none"></path>
    </g>
  </g>
  <mask></mask>
  <g stroke-linecap="round">
    <g transform="translate(249.57106642962322 10.00000045587774) rotate(0 0 6.58918804703336)">
      <path d="M0 0 C0 2.2, 0 10.98, 0 13.18 M0 0 C0 2.2, 0 10.98, 0 13.18" stroke="#101523" stroke-width="2" fill="none"></path>
    </g>
  </g>
  <mask></mask>
  <g stroke-linecap="round">
    <g transform="translate(260.97921284644804 10.00000149277173) rotate(0 0 6.58918804703336)">
      <path d="M0 0 C0 2.2, 0 10.98, 0 13.18 M0 0 C0 2.2, 0 10.98, 0 13.18" stroke="#101523" stroke-width="2" fill="none"></path>
    </g>
  </g>
  <mask></mask>
  <g stroke-linecap="round">
    <g transform="translate(272.3873584209889 10.000001152318987) rotate(0 0 6.58918804703336)">
      <path d="M0 0 C0 2.2, 0 10.98, 0 13.18 M0 0 C0 2.2, 0 10.98, 0 13.18" stroke="#101523" stroke-width="2" fill="none"></path>
    </g>
  </g>
  <mask></mask>
  <g stroke-linecap="round">
    <g transform="translate(283.7955048378137 10.000002189212978) rotate(0 0 6.58918804703336)">
      <path d="M0 0 C0 2.2, 0 10.98, 0 13.18 M0 0 C0 2.2, 0 10.98, 0 13.18" stroke="#101523" stroke-width="2" fill="none"></path>
    </g>
  </g>
  <mask></mask>
  <g stroke-linecap="round">
    <g transform="translate(295.20365263241274 10.000000489107379) rotate(0 0 10.719724253287609)">
      <path d="M0 0 C0 3.57, 0 17.87, 0 21.44 M0 0 C0 3.57, 0 17.87, 0 21.44" stroke="#101523" stroke-width="2" fill="none"></path>
    </g>
  </g>
  <mask></mask>
  <g stroke-linecap="round">
    <g transform="translate(306.61179838494763 10) rotate(0 0 6.58918804703336)">
      <path d="M0 0 C0 2.2, 0 10.98, 0 13.18 M0 0 C0 2.2, 0 10.98, 0 13.18" stroke="#101523" stroke-width="2" fill="none"></path>
    </g>
  </g>
  <mask></mask>
  <g stroke-linecap="round">
    <g transform="translate(318.0199448017729 10.000001036893764) rotate(0 0 6.58918804703336)">
      <path d="M0 0 C0 2.2, 0 10.98, 0 13.18 M0 0 C0 2.2, 0 10.98, 0 13.18" stroke="#101523" stroke-width="2" fill="none"></path>
    </g>
  </g>
  <mask></mask>
  <g stroke-linecap="round">
    <g transform="translate(329.4280903763138 10.00000069644102) rotate(0 0 6.58918804703336)">
      <path d="M0 0 C0 2.2, 0 10.98, 0 13.18 M0 0 C0 2.2, 0 10.98, 0 13.18" stroke="#101523" stroke-width="2" fill="none"></path>
    </g>
  </g>
  <mask></mask>
  <g stroke-linecap="round">
    <g transform="translate(340.8362367931386 10.000001733335012) rotate(0 0 6.58918804703336)">
      <path d="M0 0 C0 2.2, 0 10.98, 0 13.18 M0 0 C0 2.2, 0 10.98, 0 13.18" stroke="#101523" stroke-width="2" fill="none"></path>
    </g>
  </g>
  <mask></mask>
  <g stroke-linecap="round">
    <g transform="translate(352.24438036918536 10.382795775625027) rotate(0 0 10.719724253287609)">
      <path d="M0 0 C0 3.57, 0 17.87, 0 21.44 M0 0 C0 3.57, 0 17.87, 0 21.44" stroke="#101523" stroke-width="2" fill="none"></path>
    </g>
  </g>
  <mask></mask>
  <g stroke-linecap="round">
    <g transform="translate(363.65252612172026 10.382795286517421) rotate(0 0 6.58918804703336)">
      <path d="M0 0 C0 2.2, 0 10.98, 0 13.18 M0 0 C0 2.2, 0 10.98, 0 13.18" stroke="#101523" stroke-width="2" fill="none"></path>
    </g>
  </g>
  <mask></mask>
  <g stroke-linecap="round">
    <g transform="translate(375.06067253854553 10.382796323411412) rotate(0 0 6.58918804703336)">
      <path d="M0 0 C0 2.2, 0 10.98, 0 13.18 M0 0 C0 2.2, 0 10.98, 0 13.18" stroke="#101523" stroke-width="2" fill="none"></path>
    </g>
  </g>
  <mask></mask>
  <g stroke-linecap="round">
    <g transform="translate(386.4688181130864 10.382795982958669) rotate(0 0 6.58918804703336)">
      <path d="M0 0 C0 2.2, 0 10.98, 0 13.18 M0 0 C0 2.2, 0 10.98, 0 13.18" stroke="#101523" stroke-width="2" fill="none"></path>
    </g>
  </g>
  <mask></mask>
  <g stroke-linecap="round">
    <g transform="translate(397.8769645299112 10.38279701985266) rotate(0 0 6.58918804703336)">
      <path d="M0 0 C0 2.2, 0 10.98, 0 13.18 M0 0 C0 2.2, 0 10.98, 0 13.18" stroke="#101523" stroke-width="2" fill="none"></path>
    </g>
  </g>
  <mask></mask>
  <g stroke-linecap="round">
    <g transform="translate(409.2851070364866 10.382797487602033) rotate(0 0 10.719724253287609)">
      <path d="M0 0 C0 3.57, 0 17.87, 0 21.44 M0 0 C0 3.57, 0 17.87, 0 21.44" stroke="#101523" stroke-width="2" fill="none"></path>
    </g>
  </g>
  <mask></mask>
  <g stroke-linecap="round">
    <g transform="translate(420.69325278902147 10.382796998494427) rotate(0 0 6.58918804703336)">
      <path d="M0 0 C0 2.2, 0 10.98, 0 13.18 M0 0 C0 2.2, 0 10.98, 0 13.18" stroke="#101523" stroke-width="2" fill="none"></path>
    </g>
  </g>
  <mask></mask>
  <g stroke-linecap="round">
    <g transform="translate(432.10139920584675 10.382798035388419) rotate(0 0 6.58918804703336)">
      <path d="M0 0 C0 2.2, 0 10.98, 0 13.18 M0 0 C0 2.2, 0 10.98, 0 13.18" stroke="#101523" stroke-width="2" fill="none"></path>
    </g>
  </g>
  <mask></mask>
  <g stroke-linecap="round">
    <g transform="translate(443.5095447803876 10.382797694935675) rotate(0 0 6.58918804703336)">
      <path d="M0 0 C0 2.2, 0 10.98, 0 13.18 M0 0 C0 2.2, 0 10.98, 0 13.18" stroke="#101523" stroke-width="2" fill="none"></path>
    </g>
  </g>
  <mask></mask>
  <g stroke-linecap="round">
    <g transform="translate(454.91769119721243 10.382798731829666) rotate(0 0 6.58918804703336)">
      <path d="M0 0 C0 2.2, 0 10.98, 0 13.18 M0 0 C0 2.2, 0 10.98, 0 13.18" stroke="#101523" stroke-width="2" fill="none"></path>
    </g>
  </g>
  <mask></mask>
  <g stroke-linecap="round">
    <g transform="translate(466.32583455227154 10.765591009607078) rotate(0 0 10.719724253287609)">
      <path d="M0 0 C0 3.57, 0 17.87, 0 21.44 M0 0 C0 3.57, 0 17.87, 0 21.44" stroke="#101523" stroke-width="2" fill="none"></path>
    </g>
  </g>
  <mask></mask>
  <g stroke-linecap="round">
    <g transform="translate(477.7339803048069 10.7655905204997) rotate(0 0 6.58918804703336)">
      <path d="M0 0 C0 2.2, 0 10.98, 0 13.18 M0 0 C0 2.2, 0 10.98, 0 13.18" stroke="#101523" stroke-width="2" fill="none"></path>
    </g>
  </g>
  <mask></mask>
  <g stroke-linecap="round">
    <g transform="translate(489.1421267216317 10.765591557393464) rotate(0 0 6.58918804703336)">
      <path d="M0 0 C0 2.2, 0 10.98, 0 13.18 M0 0 C0 2.2, 0 10.98, 0 13.18" stroke="#101523" stroke-width="2" fill="none"></path>
    </g>
  </g>
  <mask></mask>
  <g stroke-linecap="round">
    <g transform="translate(500.5502722961726 10.76559121694072) rotate(0 0 6.58918804703336)">
      <path d="M0 0 C0 2.2, 0 10.98, 0 13.18 M0 0 C0 2.2, 0 10.98, 0 13.18" stroke="#101523" stroke-width="2" fill="none"></path>
    </g>
  </g>
  <mask></mask>
  <g stroke-linecap="round">
    <g transform="translate(511.9584187129974 10.765592253834711) rotate(0 0 6.58918804703336)">
      <path d="M0 0 C0 2.2, 0 10.98, 0 13.18 M0 0 C0 2.2, 0 10.98, 0 13.18" stroke="#101523" stroke-width="2" fill="none"></path>
    </g>
  </g>
  <mask></mask>
  <g stroke-linecap="round">
    <g transform="translate(523.3665648481763 10.382799338088262) rotate(0 0 10.719724253287609)">
      <path d="M0 0 C0 3.57, 0 17.87, 0 21.44 M0 0 C0 3.57, 0 17.87, 0 21.44" stroke="#101523" stroke-width="2" fill="none"></path>
    </g>
  </g>
  <mask></mask>
  <g stroke-linecap="round">
    <g transform="translate(534.7747106007112 10.382798848980656) rotate(0 0 6.58918804703336)">
      <path d="M0 0 C0 2.2, 0 10.98, 0 13.18 M0 0 C0 2.2, 0 10.98, 0 13.18" stroke="#101523" stroke-width="2" fill="none"></path>
    </g>
  </g>
  <mask></mask>
  <g stroke-linecap="round">
    <g transform="translate(546.1828570175364 10.382799885874647) rotate(0 0 6.58918804703336)">
      <path d="M0 0 C0 2.2, 0 10.98, 0 13.18 M0 0 C0 2.2, 0 10.98, 0 13.18" stroke="#101523" stroke-width="2" fill="none"></path>
    </g>
  </g>
  <mask></mask>
  <g stroke-linecap="round">
    <g transform="translate(557.5910025920773 10.382799545421904) rotate(0 0 6.58918804703336)">
      <path d="M0 0 C0 2.2, 0 10.98, 0 13.18 M0 0 C0 2.2, 0 10.98, 0 13.18" stroke="#101523" stroke-width="2" fill="none"></path>
    </g>
  </g>
  <mask></mask>
  <g stroke-linecap="round">
    <g transform="translate(568.9991490089021 10.382800582315895) rotate(0 0 6.58918804703336)">
      <path d="M0 0 C0 2.2, 0 10.98, 0 13.18 M0 0 C0 2.2, 0 10.98, 0 13.18" stroke="#101523" stroke-width="2" fill="none"></path>
    </g>
  </g>
  <mask></mask>
  <g stroke-linecap="round">
    <g transform="translate(580.4072947948669 10.765592348227756) rotate(0 0 10.719724253287609)">
      <path d="M0 0 C0 3.57, 0 17.87, 0 21.44 M0 0 C0 3.57, 0 17.87, 0 21.44" stroke="#101523" stroke-width="2" fill="none"></path>
    </g>
  </g>
  <mask></mask>
  <g stroke-linecap="round">
    <g transform="translate(591.8154405474017 10.765591859120377) rotate(0 0 6.58918804703336)">
      <path d="M0 0 C0 2.2, 0 10.98, 0 13.18 M0 0 C0 2.2, 0 10.98, 0 13.18" stroke="#101523" stroke-width="2" fill="none"></path>
    </g>
  </g>
  <mask></mask>
  <g stroke-linecap="round">
    <g transform="translate(603.2235869642266 10.765592896014141) rotate(0 0 6.58918804703336)">
      <path d="M0 0 C0 2.2, 0 10.98, 0 13.18 M0 0 C0 2.2, 0 10.98, 0 13.18" stroke="#101523" stroke-width="2" fill="none"></path>
    </g>
  </g>
  <mask></mask>
  <g stroke-linecap="round">
    <g transform="translate(614.6317325387674 10.765592555561398) rotate(0 0 6.58918804703336)">
      <path d="M0 0 C0 2.2, 0 10.98, 0 13.18 M0 0 C0 2.2, 0 10.98, 0 13.18" stroke="#101523" stroke-width="2" fill="none"></path>
    </g>
  </g>
  <mask></mask>
  <g stroke-linecap="round">
    <g transform="translate(626.0398789555923 10.765593592455389) rotate(0 0 6.58918804703336)">
      <path d="M0 0 C0 2.2, 0 10.98, 0 13.18 M0 0 C0 2.2, 0 10.98, 0 13.18" stroke="#101523" stroke-width="2" fill="none"></path>
    </g>
  </g>
  <mask></mask>
  <g stroke-linecap="round">
    <g transform="translate(637.4480245215002 10.765591151460058) rotate(0 0 10.719724253287609)">
      <path d="M0 0 C0 3.57, 0 17.87, 0 21.44 M0 0 C0 3.57, 0 17.87, 0 21.44" stroke="#101523" stroke-width="2" fill="none"></path>
    </g>
  </g>
  <mask></mask>
  <g stroke-linecap="round">
    <g transform="translate(648.8561702740351 10.765590662352679) rotate(0 0 6.58918804703336)">
      <path d="M0 0 C0 2.2, 0 10.98, 0 13.18 M0 0 C0 2.2, 0 10.98, 0 13.18" stroke="#101523" stroke-width="2" fill="none"></path>
    </g>
  </g>
  <mask></mask>
  <g stroke-linecap="round">
    <g transform="translate(660.2643166908599 10.765591699246443) rotate(0 0 6.58918804703336)">
      <path d="M0 0 C0 2.2, 0 10.98, 0 13.18 M0 0 C0 2.2, 0 10.98, 0 13.18" stroke="#101523" stroke-width="2" fill="none"></path>
    </g>
  </g>
  <mask></mask>
  <g stroke-linecap="round">
    <g transform="translate(671.6724622654008 10.7655913587937) rotate(0 0 6.58918804703336)">
      <path d="M0 0 C0 2.2, 0 10.98, 0 13.18 M0 0 C0 2.2, 0 10.98, 0 13.18" stroke="#101523" stroke-width="2" fill="none"></path>
    </g>
  </g>
  <mask></mask>
  <g stroke-linecap="round">
    <g transform="translate(683.0806086822256 10.76559239568769) rotate(0 0 6.58918804703336)">
      <path d="M0 0 C0 2.2, 0 10.98, 0 13.18 M0 0 C0 2.2, 0 10.98, 0 13.18" stroke="#101523" stroke-width="2" fill="none"></path>
    </g>
  </g>
  <mask></mask>
  <g stroke-linecap="round">
    <g transform="translate(694.4887552293601 10.38279937001198) rotate(0 0 10.719724253287609)">
      <path d="M0 0 C0 3.57, 0 17.87, 0 21.44 M0 0 C0 3.57, 0 17.87, 0 21.44" stroke="#101523" stroke-width="2" fill="none"></path>
    </g>
  </g>
  <mask></mask>
  <g stroke-linecap="round">
    <g transform="translate(705.896900981895 10.382798880904375) rotate(0 0 6.58918804703336)">
      <path d="M0 0 C0 2.2, 0 10.98, 0 13.18 M0 0 C0 2.2, 0 10.98, 0 13.18" stroke="#101523" stroke-width="2" fill="none"></path>
    </g>
  </g>
  <mask></mask>
  <g stroke-linecap="round">
    <g transform="translate(717.3050473987198 10.382799917798366) rotate(0 0 6.58918804703336)">
      <path d="M0 0 C0 2.2, 0 10.98, 0 13.18 M0 0 C0 2.2, 0 10.98, 0 13.18" stroke="#101523" stroke-width="2" fill="none"></path>
    </g>
  </g>
  <mask></mask>
  <g stroke-linecap="round">
    <g transform="translate(728.7131929732607 10.382799577345395) rotate(0 0 6.58918804703336)">
      <path d="M0 0 C0 2.2, 0 10.98, 0 13.18 M0 0 C0 2.2, 0 10.98, 0 13.18" stroke="#101523" stroke-width="2" fill="none"></path>
    </g>
  </g>
  <mask></mask>
  <g stroke-linecap="round">
    <g transform="translate(740.1213393900855 10.382800614239386) rotate(0 0 6.58918804703336)">
      <path d="M0 0 C0 2.2, 0 10.98, 0 13.18 M0 0 C0 2.2, 0 10.98, 0 13.18" stroke="#101523" stroke-width="2" fill="none"></path>
    </g>
  </g>
  <mask></mask>
  <g stroke-linecap="round">
    <g transform="translate(751.5294871846843 10.3827989141339) rotate(0 0 10.719724253287609)">
      <path d="M0 0 C0 3.57, 0 17.87, 0 21.44 M0 0 C0 3.57, 0 17.87, 0 21.44" stroke="#101523" stroke-width="2" fill="none"></path>
    </g>
  </g>
  <mask></mask>
  <g stroke-linecap="round">
    <g transform="translate(762.9376329372196 10.382798425026522) rotate(0 0 6.58918804703336)">
      <path d="M0 0 C0 2.2, 0 10.98, 0 13.18 M0 0 C0 2.2, 0 10.98, 0 13.18" stroke="#101523" stroke-width="2" fill="none"></path>
    </g>
  </g>
  <mask></mask>
  <g stroke-linecap="round">
    <g transform="translate(774.3457793540445 10.382799461920285) rotate(0 0 6.58918804703336)">
      <path d="M0 0 C0 2.2, 0 10.98, 0 13.18 M0 0 C0 2.2, 0 10.98, 0 13.18" stroke="#101523" stroke-width="2" fill="none"></path>
    </g>
  </g>
  <mask></mask>
  <g stroke-linecap="round">
    <g transform="translate(785.7539249285853 10.382799121467542) rotate(0 0 6.58918804703336)">
      <path d="M0 0 C0 2.2, 0 10.98, 0 13.18 M0 0 C0 2.2, 0 10.98, 0 13.18" stroke="#101523" stroke-width="2" fill="none"></path>
    </g>
  </g>
  <mask></mask>
  <g stroke-linecap="round">
    <g transform="translate(797.1620713454101 10.382800158361533) rotate(0 0 6.58918804703336)">
      <path d="M0 0 C0 2.2, 0 10.98, 0 13.18 M0 0 C0 2.2, 0 10.98, 0 13.18" stroke="#101523" stroke-width="2" fill="none"></path>
    </g>
  </g>
  <mask></mask>
  <g stroke-linecap="round">
    <g transform="translate(808.5702149214574 10.765594200651549) rotate(0 0 10.719724253287609)">
      <path d="M0 0 C0 3.57, 0 17.87, 0 21.44 M0 0 C0 3.57, 0 17.87, 0 21.44" stroke="#101523" stroke-width="2" fill="none"></path>
    </g>
  </g>
  <mask></mask>
  <g stroke-linecap="round">
    <g transform="translate(819.9783606739918 10.765593711543943) rotate(0 0 6.58918804703336)">
      <path d="M0 0 C0 2.2, 0 10.98, 0 13.18 M0 0 C0 2.2, 0 10.98, 0 13.18" stroke="#101523" stroke-width="2" fill="none"></path>
    </g>
  </g>
  <mask></mask>
  <g stroke-linecap="round">
    <g transform="translate(831.3865070908175 10.765594748437934) rotate(0 0 6.58918804703336)">
      <path d="M0 0 C0 2.2, 0 10.98, 0 13.18 M0 0 C0 2.2, 0 10.98, 0 13.18" stroke="#101523" stroke-width="2" fill="none"></path>
    </g>
  </g>
  <mask></mask>
  <g stroke-linecap="round">
    <g transform="translate(842.7946526653584 10.76559440798519) rotate(0 0 6.58918804703336)">
      <path d="M0 0 C0 2.2, 0 10.98, 0 13.18 M0 0 C0 2.2, 0 10.98, 0 13.18" stroke="#101523" stroke-width="2" fill="none"></path>
    </g>
  </g>
  <mask></mask>
  <g stroke-linecap="round">
    <g transform="translate(854.2027990821832 10.765595444879182) rotate(0 0 6.58918804703336)">
      <path d="M0 0 C0 2.2, 0 10.98, 0 13.18 M0 0 C0 2.2, 0 10.98, 0 13.18" stroke="#101523" stroke-width="2" fill="none"></path>
    </g>
  </g>
  <mask></mask>
  <g stroke-linecap="round">
    <g transform="translate(865.6109415887584 10.765595912628669) rotate(0 0 10.719724253287609)">
      <path d="M0 0 C0 3.57, 0 17.87, 0 21.44 M0 0 C0 3.57, 0 17.87, 0 21.44" stroke="#101523" stroke-width="2" fill="none"></path>
    </g>
  </g>
  <mask></mask>
  <g stroke-linecap="round">
    <g transform="translate(877.0190873412932 10.765595423521063) rotate(0 0 6.58918804703336)">
      <path d="M0 0 C0 2.2, 0 10.98, 0 13.18 M0 0 C0 2.2, 0 10.98, 0 13.18" stroke="#101523" stroke-width="2" fill="none"></path>
    </g>
  </g>
  <mask></mask>
  <g stroke-linecap="round">
    <g transform="translate(888.4272337581185 10.765596460415054) rotate(0 0 6.58918804703336)">
      <path d="M0 0 C0 2.2, 0 10.98, 0 13.18 M0 0 C0 2.2, 0 10.98, 0 13.18" stroke="#101523" stroke-width="2" fill="none"></path>
    </g>
  </g>
  <mask></mask>
  <g stroke-linecap="round">
    <g transform="translate(899.8353793326594 10.765596119962083) rotate(0 0 6.58918804703336)">
      <path d="M0 0 C0 2.2, 0 10.98, 0 13.18 M0 0 C0 2.2, 0 10.98, 0 13.18" stroke="#101523" stroke-width="2" fill="none"></path>
    </g>
  </g>
  <mask></mask>
  <g stroke-linecap="round">
    <g transform="translate(911.2435257494842 10.765597156856074) rotate(0 0 6.58918804703336)">
      <path d="M0 0 C0 2.2, 0 10.98, 0 13.18 M0 0 C0 2.2, 0 10.98, 0 13.18" stroke="#101523" stroke-width="2" fill="none"></path>
    </g>
  </g>
  <mask></mask>
  <g stroke-linecap="round">
    <g transform="translate(922.6516670258159 10.765589220419201) rotate(0 0 10.719724253287609)">
      <path d="M0 0 C0 3.57, 0 17.87, 0 21.44 M0 0 C0 3.57, 0 17.87, 0 21.44" stroke="#101523" stroke-width="2" fill="none"></path>
    </g>
  </g>
  <mask></mask>
  <g stroke-linecap="round">
    <g transform="translate(934.0598127783503 10.765588731311595) rotate(0 0 6.58918804703336)">
      <path d="M0 0 C0 2.2, 0 10.98, 0 13.18 M0 0 C0 2.2, 0 10.98, 0 13.18" stroke="#101523" stroke-width="2" fill="none"></path>
    </g>
  </g>
  <mask></mask>
  <g stroke-linecap="round">
    <g transform="translate(945.4679591951756 10.765589768205587) rotate(0 0 6.58918804703336)">
      <path d="M0 0 C0 2.2, 0 10.98, 0 13.18 M0 0 C0 2.2, 0 10.98, 0 13.18" stroke="#101523" stroke-width="2" fill="none"></path>
    </g>
  </g>
  <mask></mask>
  <g stroke-linecap="round">
    <g transform="translate(956.8761047697164 10.765589427752843) rotate(0 0 6.58918804703336)">
      <path d="M0 0 C0 2.2, 0 10.98, 0 13.18 M0 0 C0 2.2, 0 10.98, 0 13.18" stroke="#101523" stroke-width="2" fill="none"></path>
    </g>
  </g>
  <mask></mask>
  <g stroke-linecap="round">
    <g transform="translate(968.2842511865413 10.765590464646834) rotate(0 0 6.58918804703336)">
      <path d="M0 0 C0 2.2, 0 10.98, 0 13.18 M0 0 C0 2.2, 0 10.98, 0 13.18" stroke="#101523" stroke-width="2" fill="none"></path>
    </g>
  </g>
  <mask></mask>
  <g stroke-linecap="round">
    <g transform="translate(979.6923973217201 10.382797548900385) rotate(0 0 10.719724253287609)">
      <path d="M0 0 C0 3.57, 0 17.87, 0 21.44 M0 0 C0 3.57, 0 17.87, 0 21.44" stroke="#101523" stroke-width="2" fill="none"></path>
    </g>
  </g>
  <mask></mask>
  <g stroke-linecap="round">
    <g transform="translate(991.100543074255 10.382797059792779) rotate(0 0 6.58918804703336)">
      <path d="M0 0 C0 2.2, 0 10.98, 0 13.18 M0 0 C0 2.2, 0 10.98, 0 13.18" stroke="#101523" stroke-width="2" fill="none"></path>
    </g>
  </g>
  <mask></mask>
  <g stroke-linecap="round">
    <g transform="translate(1002.5086894910803 10.38279809668677) rotate(0 0 6.58918804703336)">
      <path d="M0 0 C0 2.2, 0 10.98, 0 13.18 M0 0 C0 2.2, 0 10.98, 0 13.18" stroke="#101523" stroke-width="2" fill="none"></path>
    </g>
  </g>
  <mask></mask>
  <g stroke-linecap="round">
    <g transform="translate(1013.9168350656212 10.382797756234027) rotate(0 0 6.58918804703336)">
      <path d="M0 0 C0 2.2, 0 10.98, 0 13.18 M0 0 C0 2.2, 0 10.98, 0 13.18" stroke="#101523" stroke-width="2" fill="none"></path>
    </g>
  </g>
  <mask></mask>
  <g stroke-linecap="round">
    <g transform="translate(1025.324981482446 10.382798793128018) rotate(0 0 6.58918804703336)">
      <path d="M0 0 C0 2.2, 0 10.98, 0 13.18 M0 0 C0 2.2, 0 10.98, 0 13.18" stroke="#101523" stroke-width="2" fill="none"></path>
    </g>
  </g>
  <mask></mask>
  <g stroke-linecap="round">
    <g transform="translate(1036.7331272684107 10.765590559039879) rotate(0 0 10.719724253287609)">
      <path d="M0 0 C0 3.57, 0 17.87, 0 21.44 M0 0 C0 3.57, 0 17.87, 0 21.44" stroke="#101523" stroke-width="2" fill="none"></path>
    </g>
  </g>
  <mask></mask>
  <g stroke-linecap="round">
    <g transform="translate(1048.1412730209456 10.7655900699325) rotate(0 0 6.58918804703336)">
      <path d="M0 0 C0 2.2, 0 10.98, 0 13.18 M0 0 C0 2.2, 0 10.98, 0 13.18" stroke="#101523" stroke-width="2" fill="none"></path>
    </g>
  </g>
  <mask></mask>
  <g stroke-linecap="round">
    <g transform="translate(1059.5494194377704 10.765591106826264) rotate(0 0 6.58918804703336)">
      <path d="M0 0 C0 2.2, 0 10.98, 0 13.18 M0 0 C0 2.2, 0 10.98, 0 13.18" stroke="#101523" stroke-width="2" fill="none"></path>
    </g>
  </g>
  <mask></mask>
  <g stroke-linecap="round">
    <g transform="translate(1070.9575650123113 10.76559076637352) rotate(0 0 6.58918804703336)">
      <path d="M0 0 C0 2.2, 0 10.98, 0 13.18 M0 0 C0 2.2, 0 10.98, 0 13.18" stroke="#101523" stroke-width="2" fill="none"></path>
    </g>
  </g>
  <mask></mask>
  <g stroke-linecap="round">
    <g transform="translate(1082.3657114291361 10.765591803267512) rotate(0 0 6.58918804703336)">
      <path d="M0 0 C0 2.2, 0 10.98, 0 13.18 M0 0 C0 2.2, 0 10.98, 0 13.18" stroke="#101523" stroke-width="2" fill="none"></path>
    </g>
  </g>
  <mask></mask>
  <g stroke-linecap="round">
    <g transform="translate(1093.773856995044 10.76558936227218) rotate(0 0 10.719724253287609)">
      <path d="M0 0 C0 3.57, 0 17.87, 0 21.44 M0 0 C0 3.57, 0 17.87, 0 21.44" stroke="#101523" stroke-width="2" fill="none"></path>
    </g>
  </g>
  <mask></mask>
  <g stroke-linecap="round">
    <g transform="translate(1105.182002747579 10.765588873164802) rotate(0 0 6.58918804703336)">
      <path d="M0 0 C0 2.2, 0 10.98, 0 13.18 M0 0 C0 2.2, 0 10.98, 0 13.18" stroke="#101523" stroke-width="2" fill="none"></path>
    </g>
  </g>
  <mask></mask>
  <g stroke-linecap="round">
    <g transform="translate(1116.5901491644038 10.765589910058566) rotate(0 0 6.58918804703336)">
      <path d="M0 0 C0 2.2, 0 10.98, 0 13.18 M0 0 C0 2.2, 0 10.98, 0 13.18" stroke="#101523" stroke-width="2" fill="none"></path>
    </g>
  </g>
  <mask></mask>
  <g stroke-linecap="round">
    <g transform="translate(1127.9982947389447 10.765589569605822) rotate(0 0 6.58918804703336)">
      <path d="M0 0 C0 2.2, 0 10.98, 0 13.18 M0 0 C0 2.2, 0 10.98, 0 13.18" stroke="#101523" stroke-width="2" fill="none"></path>
    </g>
  </g>
  <mask></mask>
  <g stroke-linecap="round">
    <g transform="translate(1139.4064411557695 10.765590606499813) rotate(0 0 6.58918804703336)">
      <path d="M0 0 C0 2.2, 0 10.98, 0 13.18 M0 0 C0 2.2, 0 10.98, 0 13.18" stroke="#101523" stroke-width="2" fill="none"></path>
    </g>
  </g>
  <mask></mask>
  <g stroke-linecap="round">
    <g transform="translate(1150.814587702904 10.382797580823876) rotate(0 0 10.719724253287609)">
      <path d="M0 0 C0 3.57, 0 17.87, 0 21.44 M0 0 C0 3.57, 0 17.87, 0 21.44" stroke="#101523" stroke-width="2" fill="none"></path>
    </g>
  </g>
  <mask></mask>
  <g stroke-linecap="round">
    <g transform="translate(1162.2227334554389 10.38279709171627) rotate(0 0 6.58918804703336)">
      <path d="M0 0 C0 2.2, 0 10.98, 0 13.18 M0 0 C0 2.2, 0 10.98, 0 13.18" stroke="#101523" stroke-width="2" fill="none"></path>
    </g>
  </g>
  <mask></mask>
  <g stroke-linecap="round">
    <g transform="translate(1173.6308798722637 10.382798128610261) rotate(0 0 6.58918804703336)">
      <path d="M0 0 C0 2.2, 0 10.98, 0 13.18 M0 0 C0 2.2, 0 10.98, 0 13.18" stroke="#101523" stroke-width="2" fill="none"></path>
    </g>
  </g>
  <mask></mask>
  <g stroke-linecap="round">
    <g transform="translate(1185.0390254468045 10.382797788157745) rotate(0 0 6.58918804703336)">
      <path d="M0 0 C0 2.2, 0 10.98, 0 13.18 M0 0 C0 2.2, 0 10.98, 0 13.18" stroke="#101523" stroke-width="2" fill="none"></path>
    </g>
  </g>
  <mask></mask>
  <g stroke-linecap="round">
    <g transform="translate(1196.4471718636294 10.382798825051736) rotate(0 0 6.58918804703336)">
      <path d="M0 0 C0 2.2, 0 10.98, 0 13.18 M0 0 C0 2.2, 0 10.98, 0 13.18" stroke="#101523" stroke-width="2" fill="none"></path>
    </g>
  </g>
  <mask></mask>
  <g stroke-linecap="round">
    <g transform="translate(1207.8553196582286 10.382797124946023) rotate(0 0 10.719724253287609)">
      <path d="M0 0 C0 3.57, 0 17.87, 0 21.44 M0 0 C0 3.57, 0 17.87, 0 21.44" stroke="#101523" stroke-width="2" fill="none"></path>
    </g>
  </g>
  <mask></mask>
  <g stroke-linecap="round">
    <g transform="translate(1219.263465410763 10.382796635838645) rotate(0 0 6.58918804703336)">
      <path d="M0 0 C0 2.2, 0 10.98, 0 13.18 M0 0 C0 2.2, 0 10.98, 0 13.18" stroke="#101523" stroke-width="2" fill="none"></path>
    </g>
  </g>
  <mask></mask>
  <g stroke-linecap="round">
    <g transform="translate(1230.6716118275888 10.382797672732409) rotate(0 0 6.58918804703336)">
      <path d="M0 0 C0 2.2, 0 10.98, 0 13.18 M0 0 C0 2.2, 0 10.98, 0 13.18" stroke="#101523" stroke-width="2" fill="none"></path>
    </g>
  </g>
  <mask></mask>
  <g stroke-linecap="round">
    <g transform="translate(1242.0797574021296 10.382797332279665) rotate(0 0 6.58918804703336)">
      <path d="M0 0 C0 2.2, 0 10.98, 0 13.18 M0 0 C0 2.2, 0 10.98, 0 13.18" stroke="#101523" stroke-width="2" fill="none"></path>
    </g>
  </g>
  <mask></mask>
  <g stroke-linecap="round">
    <g transform="translate(1253.4879038189545 10.382798369173656) rotate(0 0 6.58918804703336)">
      <path d="M0 0 C0 2.2, 0 10.98, 0 13.18 M0 0 C0 2.2, 0 10.98, 0 13.18" stroke="#101523" stroke-width="2" fill="none"></path>
    </g>
  </g>
  <mask></mask>
  <g stroke-linecap="round">
    <g transform="translate(1264.8960473950008 10.765592411463672) rotate(0 0 10.719724253287609)">
      <path d="M0 0 C0 3.57, 0 17.87, 0 21.44 M0 0 C0 3.57, 0 17.87, 0 21.44" stroke="#101523" stroke-width="2" fill="none"></path>
    </g>
  </g>
  <mask></mask>
  <g stroke-linecap="round">
    <g transform="translate(1276.3041931475361 10.765591922356066) rotate(0 0 6.58918804703336)">
      <path d="M0 0 C0 2.2, 0 10.98, 0 13.18 M0 0 C0 2.2, 0 10.98, 0 13.18" stroke="#101523" stroke-width="2" fill="none"></path>
    </g>
  </g>
  <mask></mask>
  <g stroke-linecap="round">
    <g transform="translate(1287.712339564361 10.765592959250057) rotate(0 0 6.58918804703336)">
      <path d="M0 0 C0 2.2, 0 10.98, 0 13.18 M0 0 C0 2.2, 0 10.98, 0 13.18" stroke="#101523" stroke-width="2" fill="none"></path>
    </g>
  </g>
  <mask></mask>
  <g stroke-linecap="round">
    <g transform="translate(1299.1204851389018 10.765592618797314) rotate(0 0 6.58918804703336)">
      <path d="M0 0 C0 2.2, 0 10.98, 0 13.18 M0 0 C0 2.2, 0 10.98, 0 13.18" stroke="#101523" stroke-width="2" fill="none"></path>
    </g>
  </g>
  <mask></mask>
  <g stroke-linecap="round">
    <g transform="translate(1310.5286315557266 10.765593655691305) rotate(0 0 6.58918804703336)">
      <path d="M0 0 C0 2.2, 0 10.98, 0 13.18 M0 0 C0 2.2, 0 10.98, 0 13.18" stroke="#101523" stroke-width="2" fill="none"></path>
    </g>
  </g>
  <mask></mask>
  <g stroke-linecap="round">
    <g transform="translate(1321.9367740623022 10.765594123440565) rotate(0 0 10.719724253287609)">
      <path d="M0 0 C0 3.57, 0 17.87, 0 21.44 M0 0 C0 3.57, 0 17.87, 0 21.44" stroke="#101523" stroke-width="2" fill="none"></path>
    </g>
  </g>
  <mask></mask>
  <g stroke-linecap="round">
    <g transform="translate(1333.344919814837 10.765593634332959) rotate(0 0 6.58918804703336)">
      <path d="M0 0 C0 2.2, 0 10.98, 0 13.18 M0 0 C0 2.2, 0 10.98, 0 13.18" stroke="#101523" stroke-width="2" fill="none"></path>
    </g>
  </g>
  <mask></mask>
  <g stroke-linecap="round">
    <g transform="translate(1344.7530662316624 10.76559467122695) rotate(0 0 6.58918804703336)">
      <path d="M0 0 C0 2.2, 0 10.98, 0 13.18 M0 0 C0 2.2, 0 10.98, 0 13.18" stroke="#101523" stroke-width="2" fill="none"></path>
    </g>
  </g>
  <mask></mask>
  <g stroke-linecap="round">
    <g transform="translate(1356.1612118062033 10.765594330774434) rotate(0 0 6.58918804703336)">
      <path d="M0 0 C0 2.2, 0 10.98, 0 13.18 M0 0 C0 2.2, 0 10.98, 0 13.18" stroke="#101523" stroke-width="2" fill="none"></path>
    </g>
  </g>
  <mask></mask>
  <g stroke-linecap="round">
    <g transform="translate(1367.569358223028 10.765595367668425) rotate(0 0 6.58918804703336)">
      <path d="M0 0 C0 2.2, 0 10.98, 0 13.18 M0 0 C0 2.2, 0 10.98, 0 13.18" stroke="#101523" stroke-width="2" fill="none"></path>
    </g>
  </g>
  <mask></mask>
</svg>