<svg id="experienceContent" viewBox="0 0 775 115" width="775" height="115" xmlns="http://www.w3.org/2000/svg" xmlns:xlink="http://www.w3.org/1999/xlink" version="1.1"><g fill="none" stroke="#fff" stroke-width="2"><path d="M13 7.5L13 33.4L-13 33.4L-13 7.5L-35.4 -5.5L-22.4 -27.9L0 -15L22.4 -27.9L35.4 -5.5Z" transform="translate(170 75)"></path><path d="M2.4 1.4L2.4 6.3L-2.4 6.3L-2.4 1.4L-6.6 -1L-4.2 -5.2L0 -2.8L4.2 -5.2L6.6 -1Z" transform="translate(481 38)"></path><path d="M8.1 4.7L8.1 20.9L-8.1 20.9L-8.1 4.7L-22.1 -3.4L-14 -17.4L0 -9.3L14 -17.4L22.1 -3.4Z" transform="translate(630 19)"></path><path d="M5.7 3.3L5.7 14.6L-5.7 14.6L-5.7 3.3L-15.5 -2.4L-9.8 -12.2L0 -6.5L9.8 -12.2L15.5 -2.4Z" transform="translate(760 97)"></path><path d="M10.3 5.9L10.3 26.4L-10.3 26.4L-10.3 5.9L-28 -4.3L-17.8 -22.1L0 -11.8L17.8 -22.1L28 -4.3Z" transform="translate(29 80)"></path></g></svg>