<svg id="visual" viewBox="0 0 900 600" width="900" height="600" xmlns="http://www.w3.org/2000/svg" xmlns:xlink="http://www.w3.org/1999/xlink" version="1.1"><path d="M755 600L743 575C731 550 707 500 690.5 450C674 400 665 350 648.5 300C632 250 608 200 620 150C632 100 680 50 704 25L728 0L900 0L900 25C900 50 900 100 900 150C900 200 900 250 900 300C900 350 900 400 900 450C900 500 900 550 900 575L900 600Z" fill="#4845a4"></path><path d="M674 600L657.5 575C641 550 608 500 596 450C584 400 593 350 572 300C551 250 500 200 510.5 150C521 100 593 50 629 25L665 0L729 0L705 25C681 50 633 100 621 150C609 200 633 250 649.5 300C666 350 675 400 691.5 450C708 500 732 550 744 575L756 600Z" fill="#6564db"></path><path d="M611 600L596 575C581 550 551 500 542 450C533 400 545 350 522.5 300C500 250 443 200 440 150C437 100 488 50 513.5 25L539 0L666 0L630 25C594 50 522 100 511.5 150C501 200 552 250 573 300C594 350 585 400 597 450C609 500 642 550 658.5 575L675 600Z" fill="#9593e9"></path><path d="M278 600L276.5 575C275 550 272 500 279.5 450C287 400 305 350 293 300C281 250 239 200 213.5 150C188 100 179 50 174.5 25L170 0L540 0L514.5 25C489 50 438 100 441 150C444 200 501 250 523.5 300C546 350 534 400 543 450C552 500 582 550 597 575L612 600Z" fill="#9593e9"></path><path d="M125 600L117.5 575C110 550 95 500 101 450C107 400 134 350 140 300C146 250 131 200 119 150C107 100 98 50 93.5 25L89 0L171 0L175.5 25C180 50 189 100 214.5 150C240 200 282 250 294 300C306 350 288 400 280.5 450C273 500 276 550 277.5 575L279 600Z" fill="#6564db"></path><path d="M0 600L0 575C0 550 0 500 0 450C0 400 0 350 0 300C0 250 0 200 0 150C0 100 0 50 0 25L0 0L90 0L94.5 25C99 50 108 100 120 150C132 200 147 250 141 300C135 350 108 400 102 450C96 500 111 550 118.5 575L126 600Z" fill="#4845a4"></path></svg>