<svg id="visual" viewBox="0 0 900 600" width="900" height="600" preserveAspectRatio="none" xmlns="http://www.w3.org/2000/svg" xmlns:xlink="http://www.w3.org/1999/xlink" version="1.1"><rect x="0" y="0" width="960" height="540" fill="#001220"></rect><path d="M0 266L22.8 248.7C45.7 231.3 91.3 196.7 137 209C182.7 221.3 228.3 280.7 274 287C319.7 293.3 365.3 246.7 411.2 245C457 243.3 503 286.7 548.8 311C594.7 335.3 640.3 340.7 686 320C731.7 299.3 777.3 252.7 823 253.8C868.7 255 914.3 304 937.2 328.5L960 353L960 541L937.2 541C914.3 541 868.7 541 823 541C777.3 541 731.7 541 686 541C640.3 541 594.7 541 548.8 541C503 541 457 541 411.2 541C365.3 541 319.7 541 274 541C228.3 541 182.7 541 137 541C91.3 541 45.7 541 22.8 541L0 541Z" fill="#011627"></path><path d="M0 305L22.8 290.5C45.7 276 91.3 247 137 257.2C182.7 267.3 228.3 316.7 274 344.2C319.7 371.7 365.3 377.3 411.2 361.3C457 345.3 503 307.7 548.8 284.5C594.7 261.3 640.3 252.7 686 273.2C731.7 293.7 777.3 343.3 823 353.2C868.7 363 914.3 333 937.2 318L960 303L960 541L937.2 541C914.3 541 868.7 541 823 541C777.3 541 731.7 541 686 541C640.3 541 594.7 541 548.8 541C503 541 457 541 411.2 541C365.3 541 319.7 541 274 541C228.3 541 182.7 541 137 541C91.3 541 45.7 541 22.8 541L0 541Z" fill="#002e5c"></path><path d="M0 369L22.8 358.2C45.7 347.3 91.3 325.7 137 325.2C182.7 324.7 228.3 345.3 274 351.8C319.7 358.3 365.3 350.7 411.2 346.8C457 343 503 343 548.8 335.2C594.7 327.3 640.3 311.7 686 313C731.7 314.3 777.3 332.7 823 333.5C868.7 334.3 914.3 317.7 937.2 309.3L960 301L960 541L937.2 541C914.3 541 868.7 541 823 541C777.3 541 731.7 541 686 541C640.3 541 594.7 541 548.8 541C503 541 457 541 411.2 541C365.3 541 319.7 541 274 541C228.3 541 182.7 541 137 541C91.3 541 45.7 541 22.8 541L0 541Z" fill="#174393"></path><path d="M0 448L22.8 443.5C45.7 439 91.3 430 137 429.8C182.7 429.7 228.3 438.3 274 443.7C319.7 449 365.3 451 411.2 443.8C457 436.7 503 420.3 548.8 414.2C594.7 408 640.3 412 686 409.5C731.7 407 777.3 398 823 406.2C868.7 414.3 914.3 439.7 937.2 452.3L960 465L960 541L937.2 541C914.3 541 868.7 541 823 541C777.3 541 731.7 541 686 541C640.3 541 594.7 541 548.8 541C503 541 457 541 411.2 541C365.3 541 319.7 541 274 541C228.3 541 182.7 541 137 541C91.3 541 45.7 541 22.8 541L0 541Z" fill="#4e54c8"></path></svg>