<svg version="1.1" xmlns="http://www.w3.org/2000/svg" viewBox="0 0 467 464" width="467" height="464">
  <!-- svg-source:excalidraw -->
  <metadata></metadata>
  <defs>
    <style class="style-fonts"></style>
  </defs>
  <g stroke-linecap="round">
    <g transform="translate(237 10) rotate(0 0 222)">
      <path d="M0 0 C0 74, 0 370, 0 444 M0 0 C0 74, 0 370, 0 444" stroke="#1971c2" stroke-width="6" fill="none"></path>
    </g>
    <g transform="translate(237 10) rotate(0 0 222)">
      <path d="M8.55 23.49 C6.12 16.82, 3.69 10.14, 0 0 M8.55 23.49 C6.19 17, 3.83 10.51, 0 0" stroke="#1971c2" stroke-width="6" fill="none"></path>
    </g>
    <g transform="translate(237 10) rotate(0 0 222)">
      <path d="M-8.55 23.49 C-6.12 16.82, -3.69 10.14, 0 0 M-8.55 23.49 C-6.19 17, -3.83 10.51, 0 0" stroke="#1971c2" stroke-width="6" fill="none"></path>
    </g>
    <g transform="translate(237 10) rotate(0 0 222)">
      <path d="M-8.55 420.51 C-6.12 427.18, -3.69 433.86, 0 444 M-8.55 420.51 C-6.19 427, -3.83 433.49, 0 444" stroke="#1971c2" stroke-width="6" fill="none"></path>
    </g>
    <g transform="translate(237 10) rotate(0 0 222)">
      <path d="M8.55 420.51 C6.12 427.18, 3.69 433.86, 0 444 M8.55 420.51 C6.19 427, 3.83 433.49, 0 444" stroke="#1971c2" stroke-width="6" fill="none"></path>
    </g>
  </g>
  <mask></mask>
  <g stroke-linecap="round">
    <g transform="translate(10 232) rotate(0 223.5 0)">
      <path d="M0 0 C74.5 0, 372.5 0, 447 0 M0 0 C74.5 0, 372.5 0, 447 0" stroke="#1971c2" stroke-width="6" fill="none"></path>
    </g>
    <g transform="translate(10 232) rotate(0 223.5 0)">
      <path d="M23.49 -8.55 C15.65 -5.7, 7.81 -2.84, 0 0 M23.49 -8.55 C16.08 -5.85, 8.68 -3.16, 0 0" stroke="#1971c2" stroke-width="6" fill="none"></path>
    </g>
    <g transform="translate(10 232) rotate(0 223.5 0)">
      <path d="M23.49 8.55 C15.65 5.7, 7.81 2.84, 0 0 M23.49 8.55 C16.08 5.85, 8.68 3.16, 0 0" stroke="#1971c2" stroke-width="6" fill="none"></path>
    </g>
    <g transform="translate(10 232) rotate(0 223.5 0)">
      <path d="M423.51 8.55 C431.35 5.7, 439.19 2.84, 447 0 M423.51 8.55 C430.92 5.85, 438.32 3.16, 447 0" stroke="#1971c2" stroke-width="6" fill="none"></path>
    </g>
    <g transform="translate(10 232) rotate(0 223.5 0)">
      <path d="M423.51 -8.55 C431.35 -5.7, 439.19 -2.84, 447 0 M423.51 -8.55 C430.92 -5.85, 438.32 -3.16, 447 0" stroke="#1971c2" stroke-width="6" fill="none"></path>
    </g>
  </g>
  <mask></mask>
  <g stroke-linecap="round">
    <g transform="translate(181.76099736976005 84.33695284894111) rotate(0 121.68473481097652 106.87653956942921)">
      <path d="M0 0 C21.14 36.16, 86.27 217.51, 126.84 216.97 C167.4 216.44, 223.95 33.48, 243.37 -3.22 M0 0 C21.14 36.16, 86.27 217.51, 126.84 216.97 C167.4 216.44, 223.95 33.48, 243.37 -3.22" stroke="#4dabf7" stroke-width="6" fill="none"></path>
    </g>
  </g>
  <mask></mask>
</svg>