<svg version="1.1" xmlns="http://www.w3.org/2000/svg" viewBox="0 0 114.33069412322357 130.88409260317684" width="114.33069412322357" height="130.88409260317684">
  <!-- svg-source:excalidraw -->
  <metadata></metadata>
  <defs>
    <style class="style-fonts"></style>
  </defs>
  <g stroke-linecap="round">
    <g transform="translate(10 120.88409260317684) rotate(0 0 -55.44204630158842)">
      <path d="M0 0 C0 -18.48, 0 -92.4, 0 -110.88 M0 0 C0 -18.48, 0 -92.4, 0 -110.88" stroke="#1971c2" stroke-width="6" fill="none"></path>
    </g>
  </g>
  <mask></mask>
  <g stroke-linecap="round">
    <g transform="translate(10.457888399667127 48.537782819986944) rotate(0 46.93640286177822 7.220431392769456)">
      <path d="M0 0 C8.78 0, 47.54 -2.21, 52.66 0 C57.77 2.21, 23.81 10.87, 30.68 13.28 C37.55 15.69, 83.34 14.25, 93.87 14.44 M0 0 C8.78 0, 47.54 -2.21, 52.66 0 C57.77 2.21, 23.81 10.87, 30.68 13.28 C37.55 15.69, 83.34 14.25, 93.87 14.44" stroke="#1971c2" stroke-width="6" fill="none"></path>
    </g>
  </g>
  <mask></mask>
  <g stroke-linecap="round">
    <g transform="translate(64.13868195734426 49.3624370880988) rotate(0 0 -19.096062423754987)">
      <path d="M0 0 C0 -6.37, 0 -31.83, 0 -38.19 M0 0 C0 -6.37, 0 -31.83, 0 -38.19" stroke="#1971c2" stroke-width="6" fill="none"></path>
    </g>
  </g>
  <mask></mask>
  <g stroke-linecap="round">
    <g transform="translate(64.13868178559483 28.35676830744478) rotate(0 19.415371322550868 -0.2463336318075875)">
      <path d="M0 0 C6.47 -0.08, 32.36 -0.41, 38.83 -0.49 M0 0 C6.47 -0.08, 32.36 -0.41, 38.83 -0.49" stroke="#1971c2" stroke-width="6" fill="none"></path>
    </g>
  </g>
  <mask></mask>
  <g stroke-linecap="round">
    <g transform="translate(63.82041425028183 10.533776826463622) rotate(0 -26.257085832663165 0)">
      <path d="M0 0 C-8.75 0, -43.76 0, -52.51 0 M0 0 C-8.75 0, -43.76 0, -52.51 0" stroke="#1971c2" stroke-width="6" fill="none"></path>
    </g>
  </g>
  <mask></mask>
  <g stroke-linecap="round">
    <g transform="translate(40.379255755900886 60.603146956476934) rotate(0 0 -6.524487994782959)">
      <path d="M0 0 C0 -2.17, 0 -10.87, 0 -13.05 M0 0 C0 -2.17, 0 -10.87, 0 -13.05" stroke="#1971c2" stroke-width="6" fill="none"></path>
    </g>
  </g>
  <mask></mask>
  <g stroke-linecap="round">
    <g transform="translate(104.2458606943303 61.85814247043811) rotate(0 -10.46917935182239 -16.750686962915694)">
      <path d="M0 0 C-6.97 -5.82, -13.94 -11.64, -20.94 -17.49 M0 0 C-4.2 -3.51, -8.4 -7.01, -20.94 -17.49 M-20.94 -17.49 C-15.02 -22.3, -9.1 -27.11, -1.23 -33.5 M-20.94 -17.49 C-15.21 -22.14, -9.49 -26.79, -1.23 -33.5" stroke="#1971c2" stroke-width="6" fill="none"></path>
    </g>
  </g>
  <mask></mask>
</svg>