<svg version="1.1" xmlns="http://www.w3.org/2000/svg" viewBox="0 0 241.43777504448826 233.471215243306" width="241.43777504448826" height="233.471215243306">
  <!-- svg-source:excalidraw -->
  <metadata></metadata>
  <defs>
    <style class="style-fonts"></style>
  </defs>
  <g stroke-linecap="round">
    <g transform="translate(24.660410720969594 196.57907059182565) rotate(0 27.52016388046377 -68.9314581005905)">
      <path d="M0 0 C17.93 -44.91, 35.86 -89.81, 55.04 -137.86 M0 0 C19.62 -49.14, 39.24 -98.28, 55.04 -137.86" stroke="#1e1e1e" stroke-width="4" fill="none"></path>
    </g>
  </g>
  <mask></mask>
  <g stroke-linecap="round">
    <g transform="translate(216.77736428649405 196.8411673906872) rotate(0 -27.52016388046377 -68.9314581005905)">
      <path d="M0 0 C-21.12 -52.91, -42.25 -105.82, -55.04 -137.86 M0 0 C-18.12 -45.38, -36.24 -90.77, -55.04 -137.86" stroke="#1e1e1e" stroke-width="4" fill="none"></path>
    </g>
  </g>
  <mask></mask>
  <g stroke-linecap="round">
    <g transform="translate(25.20275216636128 197.1870910667359) rotate(0 95.67341576000081 12.84310279857307)">
      <path d="M0 0 C0 8.72, 0 17.44, 0 26.28 M0 0 C0 5.58, 0 11.17, 0 26.28 M0 26.28 C71.03 26.28, 142.06 26.28, 191.35 26.28 M0 26.28 C56.79 26.28, 113.58 26.28, 191.35 26.28 M191.35 26.28 C191.35 15.85, 191.35 5.41, 191.35 -0.6 M191.35 26.28 C191.35 17.39, 191.35 8.51, 191.35 -0.6" stroke="#1e1e1e" stroke-width="4" fill="none"></path>
    </g>
  </g>
  <mask></mask>
  <g stroke-linecap="round">
    <g transform="translate(24.873235330266198 196.64622763140972) rotate(0 95.84826389054865 0)">
      <path d="M0 0 C57.23 0, 114.46 0, 191.7 0 M0 0 C63.07 0, 126.14 0, 191.7 0" stroke="#1e1e1e" stroke-width="4" fill="none"></path>
    </g>
  </g>
  <mask></mask>
  <g stroke-linecap="round">
    <g transform="translate(80.10263108784511 58.898404174739724) rotate(0 6.956081251732257 -16.053750239566806)">
      <path d="M0 0 C0 -7.36, 0 -14.73, 0 -32.11 M0 0 C0 -7.24, 0 -14.47, 0 -32.11 M0 -32.11 C3.95 -32.11, 7.89 -32.11, 13.91 -32.11 M0 -32.11 C4.23 -32.11, 8.47 -32.11, 13.91 -32.11 M13.91 -32.11 C13.91 -19.75, 13.91 -7.39, 13.91 0 M13.91 -32.11 C13.91 -21.84, 13.91 -11.58, 13.91 0" stroke="#1e1e1e" stroke-width="4" fill="none"></path>
    </g>
  </g>
  <mask></mask>
  <g stroke-linecap="round">
    <g transform="translate(147.8119969150457 59.15343276385967) rotate(0 6.956081251732257 -16.053750239566806)">
      <path d="M0 0 C0 -7.37, 0 -14.75, 0 -32.11 M0 0 C0 -11.06, 0 -22.12, 0 -32.11 M0 -32.11 C4.94 -32.11, 9.88 -32.11, 13.91 -32.11 M0 -32.11 C3 -32.11, 6 -32.11, 13.91 -32.11 M13.91 -32.11 C13.91 -21.24, 13.91 -10.38, 13.91 0 M13.91 -32.11 C13.91 -20.11, 13.91 -8.12, 13.91 0" stroke="#1e1e1e" stroke-width="4" fill="none"></path>
    </g>
  </g>
  <mask></mask>
  <g stroke-linecap="round">
    <g transform="translate(94.0119253064936 59.24314407233588) rotate(0 26.811589843000547 0)">
      <path d="M0 0 C20.26 0, 40.52 0, 53.62 0 M0 0 C14.63 0, 29.26 0, 53.62 0" stroke="#1e1e1e" stroke-width="4" fill="none"></path>
    </g>
  </g>
  <mask></mask>
  <g stroke-linecap="round" transform="translate(78.27770156234646 90.25398201530489) rotate(0 42.59846663483495 42.59846663483489)">
    <path d="M85.2 42.6 C85.2 44.62, 85.05 46.66, 84.76 48.66 C84.48 50.66, 84.04 52.66, 83.47 54.6 C82.9 56.54, 82.19 58.46, 81.35 60.29 C80.51 62.13, 79.53 63.93, 78.43 65.63 C77.34 67.33, 76.12 68.97, 74.79 70.49 C73.47 72.02, 72.02 73.47, 70.49 74.79 C68.97 76.12, 67.33 77.34, 65.63 78.43 C63.93 79.53, 62.13 80.51, 60.29 81.35 C58.46 82.19, 56.54 82.9, 54.6 83.47 C52.66 84.04, 50.66 84.48, 48.66 84.76 C46.66 85.05, 44.62 85.2, 42.6 85.2 C40.58 85.2, 38.54 85.05, 36.54 84.76 C34.54 84.48, 32.54 84.04, 30.6 83.47 C28.66 82.9, 26.74 82.19, 24.9 81.35 C23.06 80.51, 21.27 79.53, 19.57 78.43 C17.87 77.34, 16.23 76.12, 14.7 74.79 C13.18 73.47, 11.73 72.02, 10.4 70.49 C9.08 68.97, 7.85 67.33, 6.76 65.63 C5.67 63.93, 4.69 62.13, 3.85 60.29 C3.01 58.46, 2.29 56.54, 1.73 54.6 C1.16 52.66, 0.72 50.66, 0.43 48.66 C0.15 46.66, 0 44.62, 0 42.6 C0 40.58, 0.15 38.54, 0.43 36.54 C0.72 34.54, 1.16 32.54, 1.73 30.6 C2.29 28.66, 3.01 26.74, 3.85 24.9 C4.69 23.06, 5.67 21.27, 6.76 19.57 C7.85 17.87, 9.08 16.23, 10.4 14.7 C11.73 13.18, 13.18 11.73, 14.7 10.4 C16.23 9.08, 17.87 7.85, 19.57 6.76 C21.27 5.67, 23.06 4.69, 24.9 3.85 C26.74 3.01, 28.66 2.29, 30.6 1.73 C32.54 1.16, 34.54 0.72, 36.54 0.43 C38.54 0.15, 40.58 0, 42.6 0 C44.62 0, 46.66 0.15, 48.66 0.43 C50.66 0.72, 52.66 1.16, 54.6 1.73 C56.54 2.29, 58.46 3.01, 60.29 3.85 C62.13 4.69, 63.93 5.67, 65.63 6.76 C67.33 7.85, 68.97 9.08, 70.49 10.4 C72.02 11.73, 73.47 13.18, 74.79 14.7 C76.12 16.23, 77.34 17.87, 78.43 19.57 C79.53 21.27, 80.51 23.06, 81.35 24.9 C82.19 26.74, 82.9 28.66, 83.47 30.6 C84.04 32.54, 84.48 34.54, 84.76 36.54 C85.05 38.54, 85.12 41.59, 85.2 42.6 C85.27 43.61, 85.27 41.59, 85.2 42.6" stroke="#1e1e1e" stroke-width="4" fill="none"></path>
  </g>
  <g stroke-linecap="round" transform="translate(114.88195806582598 97.52903797865117) rotate(0 5.836929380062884 5.8369293800629265)">
    <path d="M11.67 5.84 C11.67 6.17, 11.64 6.52, 11.59 6.85 C11.53 7.18, 11.44 7.52, 11.32 7.83 C11.21 8.15, 11.06 8.46, 10.89 8.76 C10.72 9.05, 10.53 9.33, 10.31 9.59 C10.09 9.85, 9.85 10.09, 9.59 10.31 C9.33 10.53, 9.05 10.72, 8.76 10.89 C8.46 11.06, 8.15 11.21, 7.83 11.32 C7.52 11.44, 7.18 11.53, 6.85 11.59 C6.52 11.64, 6.17 11.67, 5.84 11.67 C5.5 11.67, 5.16 11.64, 4.82 11.59 C4.49 11.53, 4.16 11.44, 3.84 11.32 C3.52 11.21, 3.21 11.06, 2.92 10.89 C2.63 10.72, 2.34 10.53, 2.09 10.31 C1.83 10.09, 1.58 9.85, 1.37 9.59 C1.15 9.33, 0.95 9.05, 0.78 8.76 C0.61 8.46, 0.47 8.15, 0.35 7.83 C0.24 7.52, 0.15 7.18, 0.09 6.85 C0.03 6.52, 0 6.17, 0 5.84 C0 5.5, 0.03 5.16, 0.09 4.82 C0.15 4.49, 0.24 4.16, 0.35 3.84 C0.47 3.52, 0.61 3.21, 0.78 2.92 C0.95 2.63, 1.15 2.34, 1.37 2.09 C1.58 1.83, 1.83 1.58, 2.09 1.37 C2.34 1.15, 2.63 0.95, 2.92 0.78 C3.21 0.61, 3.52 0.47, 3.84 0.35 C4.16 0.24, 4.49 0.15, 4.82 0.09 C5.16 0.03, 5.5 0, 5.84 0 C6.17 0, 6.52 0.03, 6.85 0.09 C7.18 0.15, 7.52 0.24, 7.83 0.35 C8.15 0.47, 8.46 0.61, 8.76 0.78 C9.05 0.95, 9.33 1.15, 9.59 1.37 C9.85 1.58, 10.09 1.83, 10.31 2.09 C10.53 2.34, 10.72 2.63, 10.89 2.92 C11.06 3.21, 11.21 3.52, 11.32 3.84 C11.44 4.16, 11.53 4.49, 11.59 4.82 C11.64 5.16, 11.66 5.67, 11.67 5.84 C11.69 6.01, 11.69 5.67, 11.67 5.84" stroke="#1e1e1e" stroke-width="4" fill="none"></path>
  </g>
  <g stroke-linecap="round" transform="translate(136.1381384555675 106.56305652669228) rotate(0 5.836929380062884 5.8369293800629265)">
    <path d="M11.67 5.84 C11.67 6.17, 11.64 6.52, 11.59 6.85 C11.53 7.18, 11.44 7.52, 11.32 7.83 C11.21 8.15, 11.06 8.46, 10.89 8.76 C10.72 9.05, 10.53 9.33, 10.31 9.59 C10.09 9.85, 9.85 10.09, 9.59 10.31 C9.33 10.53, 9.05 10.72, 8.76 10.89 C8.46 11.06, 8.15 11.21, 7.83 11.32 C7.52 11.44, 7.18 11.53, 6.85 11.59 C6.52 11.64, 6.17 11.67, 5.84 11.67 C5.5 11.67, 5.16 11.64, 4.82 11.59 C4.49 11.53, 4.16 11.44, 3.84 11.32 C3.52 11.21, 3.21 11.06, 2.92 10.89 C2.63 10.72, 2.34 10.53, 2.09 10.31 C1.83 10.09, 1.58 9.85, 1.37 9.59 C1.15 9.33, 0.95 9.05, 0.78 8.76 C0.61 8.46, 0.47 8.15, 0.35 7.83 C0.24 7.52, 0.15 7.18, 0.09 6.85 C0.03 6.52, 0 6.17, 0 5.84 C0 5.5, 0.03 5.16, 0.09 4.82 C0.15 4.49, 0.24 4.16, 0.35 3.84 C0.47 3.52, 0.61 3.21, 0.78 2.92 C0.95 2.63, 1.15 2.34, 1.37 2.09 C1.58 1.83, 1.83 1.58, 2.09 1.37 C2.34 1.15, 2.63 0.95, 2.92 0.78 C3.21 0.61, 3.52 0.47, 3.84 0.35 C4.16 0.24, 4.49 0.15, 4.82 0.09 C5.16 0.03, 5.5 0, 5.84 0 C6.17 0, 6.52 0.03, 6.85 0.09 C7.18 0.15, 7.52 0.24, 7.83 0.35 C8.15 0.47, 8.46 0.61, 8.76 0.78 C9.05 0.95, 9.33 1.15, 9.59 1.37 C9.85 1.58, 10.09 1.83, 10.31 2.09 C10.53 2.34, 10.72 2.63, 10.89 2.92 C11.06 3.21, 11.21 3.52, 11.32 3.84 C11.44 4.16, 11.53 4.49, 11.59 4.82 C11.64 5.16, 11.66 5.67, 11.67 5.84 C11.69 6.01, 11.69 5.67, 11.67 5.84" stroke="#1e1e1e" stroke-width="4" fill="none"></path>
  </g>
  <g stroke-linecap="round" transform="translate(144.52572028758414 127.01551956980367) rotate(0 5.836929380062884 5.8369293800629265)">
    <path d="M11.67 5.84 C11.67 6.17, 11.64 6.52, 11.59 6.85 C11.53 7.18, 11.44 7.52, 11.32 7.83 C11.21 8.15, 11.06 8.46, 10.89 8.76 C10.72 9.05, 10.53 9.33, 10.31 9.59 C10.09 9.85, 9.85 10.09, 9.59 10.31 C9.33 10.53, 9.05 10.72, 8.76 10.89 C8.46 11.06, 8.15 11.21, 7.83 11.32 C7.52 11.44, 7.18 11.53, 6.85 11.59 C6.52 11.64, 6.17 11.67, 5.84 11.67 C5.5 11.67, 5.16 11.64, 4.82 11.59 C4.49 11.53, 4.16 11.44, 3.84 11.32 C3.52 11.21, 3.21 11.06, 2.92 10.89 C2.63 10.72, 2.34 10.53, 2.09 10.31 C1.83 10.09, 1.58 9.85, 1.37 9.59 C1.15 9.33, 0.95 9.05, 0.78 8.76 C0.61 8.46, 0.47 8.15, 0.35 7.83 C0.24 7.52, 0.15 7.18, 0.09 6.85 C0.03 6.52, 0 6.17, 0 5.84 C0 5.5, 0.03 5.16, 0.09 4.82 C0.15 4.49, 0.24 4.16, 0.35 3.84 C0.47 3.52, 0.61 3.21, 0.78 2.92 C0.95 2.63, 1.15 2.34, 1.37 2.09 C1.58 1.83, 1.83 1.58, 2.09 1.37 C2.34 1.15, 2.63 0.95, 2.92 0.78 C3.21 0.61, 3.52 0.47, 3.84 0.35 C4.16 0.24, 4.49 0.15, 4.82 0.09 C5.16 0.03, 5.5 0, 5.84 0 C6.17 0, 6.52 0.03, 6.85 0.09 C7.18 0.15, 7.52 0.24, 7.83 0.35 C8.15 0.47, 8.46 0.61, 8.76 0.78 C9.05 0.95, 9.33 1.15, 9.59 1.37 C9.85 1.58, 10.09 1.83, 10.31 2.09 C10.53 2.34, 10.72 2.63, 10.89 2.92 C11.06 3.21, 11.21 3.52, 11.32 3.84 C11.44 4.16, 11.53 4.49, 11.59 4.82 C11.64 5.16, 11.66 5.67, 11.67 5.84 C11.69 6.01, 11.69 5.67, 11.67 5.84" stroke="#1e1e1e" stroke-width="4" fill="none"></path>
  </g>
  <g stroke-linecap="round" transform="translate(135.96124601093925 147.46798310385435) rotate(0 5.836929380062884 5.8369293800629265)">
    <path d="M11.67 5.84 C11.67 6.17, 11.64 6.52, 11.59 6.85 C11.53 7.18, 11.44 7.52, 11.32 7.83 C11.21 8.15, 11.06 8.46, 10.89 8.76 C10.72 9.05, 10.53 9.33, 10.31 9.59 C10.09 9.85, 9.85 10.09, 9.59 10.31 C9.33 10.53, 9.05 10.72, 8.76 10.89 C8.46 11.06, 8.15 11.21, 7.83 11.32 C7.52 11.44, 7.18 11.53, 6.85 11.59 C6.52 11.64, 6.17 11.67, 5.84 11.67 C5.5 11.67, 5.16 11.64, 4.82 11.59 C4.49 11.53, 4.16 11.44, 3.84 11.32 C3.52 11.21, 3.21 11.06, 2.92 10.89 C2.63 10.72, 2.34 10.53, 2.09 10.31 C1.83 10.09, 1.58 9.85, 1.37 9.59 C1.15 9.33, 0.95 9.05, 0.78 8.76 C0.61 8.46, 0.47 8.15, 0.35 7.83 C0.24 7.52, 0.15 7.18, 0.09 6.85 C0.03 6.52, 0 6.17, 0 5.84 C0 5.5, 0.03 5.16, 0.09 4.82 C0.15 4.49, 0.24 4.16, 0.35 3.84 C0.47 3.52, 0.61 3.21, 0.78 2.92 C0.95 2.63, 1.15 2.34, 1.37 2.09 C1.58 1.83, 1.83 1.58, 2.09 1.37 C2.34 1.15, 2.63 0.95, 2.92 0.78 C3.21 0.61, 3.52 0.47, 3.84 0.35 C4.16 0.24, 4.49 0.15, 4.82 0.09 C5.16 0.03, 5.5 0, 5.84 0 C6.17 0, 6.52 0.03, 6.85 0.09 C7.18 0.15, 7.52 0.24, 7.83 0.35 C8.15 0.47, 8.46 0.61, 8.76 0.78 C9.05 0.95, 9.33 1.15, 9.59 1.37 C9.85 1.58, 10.09 1.83, 10.31 2.09 C10.53 2.34, 10.72 2.63, 10.89 2.92 C11.06 3.21, 11.21 3.52, 11.32 3.84 C11.44 4.16, 11.53 4.49, 11.59 4.82 C11.64 5.16, 11.66 5.67, 11.67 5.84 C11.69 6.01, 11.69 5.67, 11.67 5.84" stroke="#1e1e1e" stroke-width="4" fill="none"></path>
  </g>
  <g stroke-linecap="round" transform="translate(115.03923844475321 156.50200129077126) rotate(0 5.836929380062884 5.8369293800629265)">
    <path d="M11.67 5.84 C11.67 6.17, 11.64 6.52, 11.59 6.85 C11.53 7.18, 11.44 7.52, 11.32 7.83 C11.21 8.15, 11.06 8.46, 10.89 8.76 C10.72 9.05, 10.53 9.33, 10.31 9.59 C10.09 9.85, 9.85 10.09, 9.59 10.31 C9.33 10.53, 9.05 10.72, 8.76 10.89 C8.46 11.06, 8.15 11.21, 7.83 11.32 C7.52 11.44, 7.18 11.53, 6.85 11.59 C6.52 11.64, 6.17 11.67, 5.84 11.67 C5.5 11.67, 5.16 11.64, 4.82 11.59 C4.49 11.53, 4.16 11.44, 3.84 11.32 C3.52 11.21, 3.21 11.06, 2.92 10.89 C2.63 10.72, 2.34 10.53, 2.09 10.31 C1.83 10.09, 1.58 9.85, 1.37 9.59 C1.15 9.33, 0.95 9.05, 0.78 8.76 C0.61 8.46, 0.47 8.15, 0.35 7.83 C0.24 7.52, 0.15 7.18, 0.09 6.85 C0.03 6.52, 0 6.17, 0 5.84 C0 5.5, 0.03 5.16, 0.09 4.82 C0.15 4.49, 0.24 4.16, 0.35 3.84 C0.47 3.52, 0.61 3.21, 0.78 2.92 C0.95 2.63, 1.15 2.34, 1.37 2.09 C1.58 1.83, 1.83 1.58, 2.09 1.37 C2.34 1.15, 2.63 0.95, 2.92 0.78 C3.21 0.61, 3.52 0.47, 3.84 0.35 C4.16 0.24, 4.49 0.15, 4.82 0.09 C5.16 0.03, 5.5 0, 5.84 0 C6.17 0, 6.52 0.03, 6.85 0.09 C7.18 0.15, 7.52 0.24, 7.83 0.35 C8.15 0.47, 8.46 0.61, 8.76 0.78 C9.05 0.95, 9.33 1.15, 9.59 1.37 C9.85 1.58, 10.09 1.83, 10.31 2.09 C10.53 2.34, 10.72 2.63, 10.89 2.92 C11.06 3.21, 11.21 3.52, 11.32 3.84 C11.44 4.16, 11.53 4.49, 11.59 4.82 C11.64 5.16, 11.66 5.67, 11.67 5.84 C11.69 6.01, 11.69 5.67, 11.67 5.84" stroke="#1e1e1e" stroke-width="4" fill="none"></path>
  </g>
  <g stroke-linecap="round" transform="translate(94.11723115657878 147.46798321464917) rotate(0 5.836929380062884 5.8369293800629265)">
    <path d="M11.67 5.84 C11.67 6.17, 11.64 6.52, 11.59 6.85 C11.53 7.18, 11.44 7.52, 11.32 7.83 C11.21 8.15, 11.06 8.46, 10.89 8.76 C10.72 9.05, 10.53 9.33, 10.31 9.59 C10.09 9.85, 9.85 10.09, 9.59 10.31 C9.33 10.53, 9.05 10.72, 8.76 10.89 C8.46 11.06, 8.15 11.21, 7.83 11.32 C7.52 11.44, 7.18 11.53, 6.85 11.59 C6.52 11.64, 6.17 11.67, 5.84 11.67 C5.5 11.67, 5.16 11.64, 4.82 11.59 C4.49 11.53, 4.16 11.44, 3.84 11.32 C3.52 11.21, 3.21 11.06, 2.92 10.89 C2.63 10.72, 2.34 10.53, 2.09 10.31 C1.83 10.09, 1.58 9.85, 1.37 9.59 C1.15 9.33, 0.95 9.05, 0.78 8.76 C0.61 8.46, 0.47 8.15, 0.35 7.83 C0.24 7.52, 0.15 7.18, 0.09 6.85 C0.03 6.52, 0 6.17, 0 5.84 C0 5.5, 0.03 5.16, 0.09 4.82 C0.15 4.49, 0.24 4.16, 0.35 3.84 C0.47 3.52, 0.61 3.21, 0.78 2.92 C0.95 2.63, 1.15 2.34, 1.37 2.09 C1.58 1.83, 1.83 1.58, 2.09 1.37 C2.34 1.15, 2.63 0.95, 2.92 0.78 C3.21 0.61, 3.52 0.47, 3.84 0.35 C4.16 0.24, 4.49 0.15, 4.82 0.09 C5.16 0.03, 5.5 0, 5.84 0 C6.17 0, 6.52 0.03, 6.85 0.09 C7.18 0.15, 7.52 0.24, 7.83 0.35 C8.15 0.47, 8.46 0.61, 8.76 0.78 C9.05 0.95, 9.33 1.15, 9.59 1.37 C9.85 1.58, 10.09 1.83, 10.31 2.09 C10.53 2.34, 10.72 2.63, 10.89 2.92 C11.06 3.21, 11.21 3.52, 11.32 3.84 C11.44 4.16, 11.53 4.49, 11.59 4.82 C11.64 5.16, 11.66 5.67, 11.67 5.84 C11.69 6.01, 11.69 5.67, 11.67 5.84" stroke="#1e1e1e" stroke-width="4" fill="none"></path>
  </g>
  <g stroke-linecap="round" transform="translate(85.5527567663712 127.01551969548548) rotate(0 5.836929380062884 5.8369293800629265)">
    <path d="M11.67 5.84 C11.67 6.17, 11.64 6.52, 11.59 6.85 C11.53 7.18, 11.44 7.52, 11.32 7.83 C11.21 8.15, 11.06 8.46, 10.89 8.76 C10.72 9.05, 10.53 9.33, 10.31 9.59 C10.09 9.85, 9.85 10.09, 9.59 10.31 C9.33 10.53, 9.05 10.72, 8.76 10.89 C8.46 11.06, 8.15 11.21, 7.83 11.32 C7.52 11.44, 7.18 11.53, 6.85 11.59 C6.52 11.64, 6.17 11.67, 5.84 11.67 C5.5 11.67, 5.16 11.64, 4.82 11.59 C4.49 11.53, 4.16 11.44, 3.84 11.32 C3.52 11.21, 3.21 11.06, 2.92 10.89 C2.63 10.72, 2.34 10.53, 2.09 10.31 C1.83 10.09, 1.58 9.85, 1.37 9.59 C1.15 9.33, 0.95 9.05, 0.78 8.76 C0.61 8.46, 0.47 8.15, 0.35 7.83 C0.24 7.52, 0.15 7.18, 0.09 6.85 C0.03 6.52, 0 6.17, 0 5.84 C0 5.5, 0.03 5.16, 0.09 4.82 C0.15 4.49, 0.24 4.16, 0.35 3.84 C0.47 3.52, 0.61 3.21, 0.78 2.92 C0.95 2.63, 1.15 2.34, 1.37 2.09 C1.58 1.83, 1.83 1.58, 2.09 1.37 C2.34 1.15, 2.63 0.95, 2.92 0.78 C3.21 0.61, 3.52 0.47, 3.84 0.35 C4.16 0.24, 4.49 0.15, 4.82 0.09 C5.16 0.03, 5.5 0, 5.84 0 C6.17 0, 6.52 0.03, 6.85 0.09 C7.18 0.15, 7.52 0.24, 7.83 0.35 C8.15 0.47, 8.46 0.61, 8.76 0.78 C9.05 0.95, 9.33 1.15, 9.59 1.37 C9.85 1.58, 10.09 1.83, 10.31 2.09 C10.53 2.34, 10.72 2.63, 10.89 2.92 C11.06 3.21, 11.21 3.52, 11.32 3.84 C11.44 4.16, 11.53 4.49, 11.59 4.82 C11.64 5.16, 11.66 5.67, 11.67 5.84 C11.69 6.01, 11.69 5.67, 11.67 5.84" stroke="#1e1e1e" stroke-width="4" fill="none"></path>
  </g>
  <g stroke-linecap="round" transform="translate(93.62577808266224 106.5630567382373) rotate(0 5.836929380062884 5.8369293800629265)">
    <path d="M11.67 5.84 C11.67 6.17, 11.64 6.52, 11.59 6.85 C11.53 7.18, 11.44 7.52, 11.32 7.83 C11.21 8.15, 11.06 8.46, 10.89 8.76 C10.72 9.05, 10.53 9.33, 10.31 9.59 C10.09 9.85, 9.85 10.09, 9.59 10.31 C9.33 10.53, 9.05 10.72, 8.76 10.89 C8.46 11.06, 8.15 11.21, 7.83 11.32 C7.52 11.44, 7.18 11.53, 6.85 11.59 C6.52 11.64, 6.17 11.67, 5.84 11.67 C5.5 11.67, 5.16 11.64, 4.82 11.59 C4.49 11.53, 4.16 11.44, 3.84 11.32 C3.52 11.21, 3.21 11.06, 2.92 10.89 C2.63 10.72, 2.34 10.53, 2.09 10.31 C1.83 10.09, 1.58 9.85, 1.37 9.59 C1.15 9.33, 0.95 9.05, 0.78 8.76 C0.61 8.46, 0.47 8.15, 0.35 7.83 C0.24 7.52, 0.15 7.18, 0.09 6.85 C0.03 6.52, 0 6.17, 0 5.84 C0 5.5, 0.03 5.16, 0.09 4.82 C0.15 4.49, 0.24 4.16, 0.35 3.84 C0.47 3.52, 0.61 3.21, 0.78 2.92 C0.95 2.63, 1.15 2.34, 1.37 2.09 C1.58 1.83, 1.83 1.58, 2.09 1.37 C2.34 1.15, 2.63 0.95, 2.92 0.78 C3.21 0.61, 3.52 0.47, 3.84 0.35 C4.16 0.24, 4.49 0.15, 4.82 0.09 C5.16 0.03, 5.5 0, 5.84 0 C6.17 0, 6.52 0.03, 6.85 0.09 C7.18 0.15, 7.52 0.24, 7.83 0.35 C8.15 0.47, 8.46 0.61, 8.76 0.78 C9.05 0.95, 9.33 1.15, 9.59 1.37 C9.85 1.58, 10.09 1.83, 10.31 2.09 C10.53 2.34, 10.72 2.63, 10.89 2.92 C11.06 3.21, 11.21 3.52, 11.32 3.84 C11.44 4.16, 11.53 4.49, 11.59 4.82 C11.64 5.16, 11.66 5.67, 11.67 5.84 C11.69 6.01, 11.69 5.67, 11.67 5.84" stroke="#1e1e1e" stroke-width="4" fill="none"></path>
  </g>
  <g stroke-linecap="round">
    <g transform="translate(60.755376066777444 65.74376488863028) rotate(0 9.458105259329159 -10.113617407563314)">
      <path d="M0 0 C0 -7.21, 0 -14.42, 0 -20.23 M0 0 C0 -7.32, 0 -14.63, 0 -20.23 M0 -20.23 C4.87 -20.23, 9.74 -20.23, 18.92 -20.23 M0 -20.23 C4.2 -20.23, 8.4 -20.23, 18.92 -20.23" stroke="#1e1e1e" stroke-width="4" fill="none"></path>
    </g>
  </g>
  <mask></mask>
  <g stroke-linecap="round">
    <g transform="translate(60.56808703781644 65.74376488863028) rotate(0 -25.28404351890822 0.6555122393791031)">
      <path d="M0 0 C-4.4 0.34, -17.98 2.19, -26.41 2.06 C-34.84 1.94, -46.54 -0.28, -50.57 -0.75 M0 0 C-4.4 0.34, -17.98 2.19, -26.41 2.06 C-34.84 1.94, -46.54 -0.28, -50.57 -0.75" stroke="#1e1e1e" stroke-width="4" fill="none"></path>
    </g>
  </g>
  <mask></mask>
  <g stroke-linecap="round">
    <g transform="translate(10.187289211251027 65.18189725487674) rotate(0 54.80705865229697 -27.518455929404986)">
      <path d="M0 0 C0.34 -3.59, 0.69 -15.89, 2.06 -21.54 C3.43 -27.19, 2.97 -29.81, 8.24 -33.9 C13.52 -37.99, 23.72 -42.92, 33.71 -46.07 C43.7 -49.23, 55.52 -51.32, 68.17 -52.82 C80.82 -54.31, 102.71 -54.67, 109.61 -55.04 M0 0 C0.34 -3.59, 0.69 -15.89, 2.06 -21.54 C3.43 -27.19, 2.97 -29.81, 8.24 -33.9 C13.52 -37.99, 23.72 -42.92, 33.71 -46.07 C43.7 -49.23, 55.52 -51.32, 68.17 -52.82 C80.82 -54.31, 102.71 -54.67, 109.61 -55.04" stroke="#1e1e1e" stroke-width="4" fill="none"></path>
    </g>
  </g>
  <mask></mask>
  <g stroke-linecap="round">
    <g transform="translate(180.68239897771036 65.74376498845457) rotate(0 -9.458105259329159 -10.113617407563314)">
      <path d="M0 0 C0 -6.15, 0 -12.3, 0 -20.23 M0 0 C0 -5.09, 0 -10.18, 0 -20.23 M0 -20.23 C-4.25 -20.23, -8.51 -20.23, -18.92 -20.23 M0 -20.23 C-4.96 -20.23, -9.92 -20.23, -18.92 -20.23" stroke="#1e1e1e" stroke-width="4" fill="none"></path>
    </g>
  </g>
  <mask></mask>
  <g stroke-linecap="round">
    <g transform="translate(180.86968800667182 65.74376498845457) rotate(0 25.28404351890822 0.6555122393791031)">
      <path d="M0 0 C4.4 0.34, 17.98 2.19, 26.41 2.06 C34.84 1.94, 46.54 -0.28, 50.57 -0.75 M0 0 C4.4 0.34, 17.98 2.19, 26.41 2.06 C34.84 1.94, 46.54 -0.28, 50.57 -0.75" stroke="#1e1e1e" stroke-width="4" fill="none"></path>
    </g>
  </g>
  <mask></mask>
  <g stroke-linecap="round">
    <g transform="translate(231.25048583323678 65.18189735470104) rotate(0 -55.537015454306356 -27.590948677350518)">
      <path d="M0 0 C-0.34 -3.59, -0.69 -15.89, -2.06 -21.54 C-3.43 -27.19, -2.97 -29.81, -8.24 -33.9 C-13.52 -37.99, -23.72 -42.92, -33.71 -46.07 C-43.7 -49.23, -55.28 -51.3, -68.17 -52.82 C-81.07 -54.33, -103.92 -54.79, -111.07 -55.18 M0 0 C-0.34 -3.59, -0.69 -15.89, -2.06 -21.54 C-3.43 -27.19, -2.97 -29.81, -8.24 -33.9 C-13.52 -37.99, -23.72 -42.92, -33.71 -46.07 C-43.7 -49.23, -55.28 -51.3, -68.17 -52.82 C-81.07 -54.33, -103.92 -54.79, -111.07 -55.18" stroke="#1e1e1e" stroke-width="4" fill="none"></path>
    </g>
  </g>
  <mask></mask>
  <g stroke-linecap="round">
    <g transform="translate(94.44632823056509 45.377862094421985) rotate(0 26.095004734828308 0)">
      <path d="M0 0 C8.7 0, 43.49 0, 52.19 0 M0 0 C8.7 0, 43.49 0, 52.19 0" stroke="#1e1e1e" stroke-width="4" fill="none"></path>
    </g>
  </g>
  <mask></mask>
</svg>