<svg id="visual" viewBox="0 0 1770 600" width="100%" height="100%" xmlns="http://www.w3.org/2000/svg" xmlns:xlink="http://www.w3.org/1999/xlink" version="1.1"><path d="M0 114L29.5 117.3C59 120.7 118 127.3 177 120.5C236 113.7 295 93.3 354 89.7C413 86 472 99 531 97C590 95 649 78 708 85.3C767 92.7 826 124.3 885 130.3C944 136.3 1003 116.7 1062 112.3C1121 108 1180 119 1239 118.7C1298 118.3 1357 106.7 1416 95.5C1475 84.3 1534 73.7 1593 66.2C1652 58.7 1711 54.3 1740.5 52.2L1770 50L1770 301L1740.5 301C1711 301 1652 301 1593 301C1534 301 1475 301 1416 301C1357 301 1298 301 1239 301C1180 301 1121 301 1062 301C1003 301 944 301 885 301C826 301 767 301 708 301C649 301 590 301 531 301C472 301 413 301 354 301C295 301 236 301 177 301C118 301 59 301 29.5 301L0 301Z" fill="#011627"></path><path d="M0 130L29.5 137.2C59 144.3 118 158.7 177 148.2C236 137.7 295 102.3 354 93.7C413 85 472 103 531 120C590 137 649 153 708 144.8C767 136.7 826 104.3 885 88.7C944 73 1003 74 1062 80.7C1121 87.3 1180 99.7 1239 100.7C1298 101.7 1357 91.3 1416 102.2C1475 113 1534 145 1593 144.3C1652 143.7 1711 110.3 1740.5 93.7L1770 77L1770 301L1740.5 301C1711 301 1652 301 1593 301C1534 301 1475 301 1416 301C1357 301 1298 301 1239 301C1180 301 1121 301 1062 301C1003 301 944 301 885 301C826 301 767 301 708 301C649 301 590 301 531 301C472 301 413 301 354 301C295 301 236 301 177 301C118 301 59 301 29.5 301L0 301Z" fill="#001f3a"></path><path d="M0 160L29.5 161.7C59 163.3 118 166.7 177 167.5C236 168.3 295 166.7 354 156.7C413 146.7 472 128.3 531 116.3C590 104.3 649 98.7 708 112C767 125.3 826 157.7 885 173.2C944 188.7 1003 187.3 1062 181.7C1121 176 1180 166 1239 155C1298 144 1357 132 1416 133.8C1475 135.7 1534 151.3 1593 152.3C1652 153.3 1711 139.7 1740.5 132.8L1770 126L1770 301L1740.5 301C1711 301 1652 301 1593 301C1534 301 1475 301 1416 301C1357 301 1298 301 1239 301C1180 301 1121 301 1062 301C1003 301 944 301 885 301C826 301 767 301 708 301C649 301 590 301 531 301C472 301 413 301 354 301C295 301 236 301 177 301C118 301 59 301 29.5 301L0 301Z" fill="#00284e"></path><path d="M0 178L29.5 181.2C59 184.3 118 190.7 177 190C236 189.3 295 181.7 354 179.2C413 176.7 472 179.3 531 177C590 174.7 649 167.3 708 167.5C767 167.7 826 175.3 885 181C944 186.7 1003 190.3 1062 182C1121 173.7 1180 153.3 1239 149C1298 144.7 1357 156.3 1416 154.2C1475 152 1534 136 1593 139C1652 142 1711 164 1740.5 175L1770 186L1770 301L1740.5 301C1711 301 1652 301 1593 301C1534 301 1475 301 1416 301C1357 301 1298 301 1239 301C1180 301 1121 301 1062 301C1003 301 944 301 885 301C826 301 767 301 708 301C649 301 590 301 531 301C472 301 413 301 354 301C295 301 236 301 177 301C118 301 59 301 29.5 301L0 301Z" fill="#003162"></path><path d="M0 179L29.5 186.5C59 194 118 209 177 209.8C236 210.7 295 197.3 354 185C413 172.7 472 161.3 531 166.3C590 171.3 649 192.7 708 192.5C767 192.3 826 170.7 885 161.2C944 151.7 1003 154.3 1062 156.2C1121 158 1180 159 1239 163.3C1298 167.7 1357 175.3 1416 180.5C1475 185.7 1534 188.3 1593 183.2C1652 178 1711 165 1740.5 158.5L1770 152L1770 301L1740.5 301C1711 301 1652 301 1593 301C1534 301 1475 301 1416 301C1357 301 1298 301 1239 301C1180 301 1121 301 1062 301C1003 301 944 301 885 301C826 301 767 301 708 301C649 301 590 301 531 301C472 301 413 301 354 301C295 301 236 301 177 301C118 301 59 301 29.5 301L0 301Z" fill="#003977"></path><path d="M0 211L29.5 213.8C59 216.7 118 222.3 177 223.5C236 224.7 295 221.3 354 220.7C413 220 472 222 531 218.5C590 215 649 206 708 203.5C767 201 826 205 885 203.5C944 202 1003 195 1062 197.3C1121 199.7 1180 211.3 1239 212.7C1298 214 1357 205 1416 197.7C1475 190.3 1534 184.7 1593 189.5C1652 194.3 1711 209.7 1740.5 217.3L1770 225L1770 301L1740.5 301C1711 301 1652 301 1593 301C1534 301 1475 301 1416 301C1357 301 1298 301 1239 301C1180 301 1121 301 1062 301C1003 301 944 301 885 301C826 301 767 301 708 301C649 301 590 301 531 301C472 301 413 301 354 301C295 301 236 301 177 301C118 301 59 301 29.5 301L0 301Z" fill="#10418c"></path><path d="M0 217L29.5 221.3C59 225.7 118 234.3 177 240.3C236 246.3 295 249.7 354 248.3C413 247 472 241 531 234.7C590 228.3 649 221.7 708 218.2C767 214.7 826 214.3 885 221C944 227.7 1003 241.3 1062 240.7C1121 240 1180 225 1239 215.5C1298 206 1357 202 1416 206.2C1475 210.3 1534 222.7 1593 230.2C1652 237.7 1711 240.3 1740.5 241.7L1770 243L1770 301L1740.5 301C1711 301 1652 301 1593 301C1534 301 1475 301 1416 301C1357 301 1298 301 1239 301C1180 301 1121 301 1062 301C1003 301 944 301 885 301C826 301 767 301 708 301C649 301 590 301 531 301C472 301 413 301 354 301C295 301 236 301 177 301C118 301 59 301 29.5 301L0 301Z" fill="#2448a0"></path><path d="M0 270L29.5 263.3C59 256.7 118 243.3 177 242C236 240.7 295 251.3 354 256.2C413 261 472 260 531 258.7C590 257.3 649 255.7 708 254.3C767 253 826 252 885 247.2C944 242.3 1003 233.7 1062 230.5C1121 227.3 1180 229.7 1239 230.8C1298 232 1357 232 1416 237.2C1475 242.3 1534 252.7 1593 256C1652 259.3 1711 255.7 1740.5 253.8L1770 252L1770 301L1740.5 301C1711 301 1652 301 1593 301C1534 301 1475 301 1416 301C1357 301 1298 301 1239 301C1180 301 1121 301 1062 301C1003 301 944 301 885 301C826 301 767 301 708 301C649 301 590 301 531 301C472 301 413 301 354 301C295 301 236 301 177 301C118 301 59 301 29.5 301L0 301Z" fill="#384eb4"></path><path d="M0 268L29.5 265.5C59 263 118 258 177 260.5C236 263 295 273 354 277C413 281 472 279 531 277.8C590 276.7 649 276.3 708 272C767 267.7 826 259.3 885 261C944 262.7 1003 274.3 1062 278.3C1121 282.3 1180 278.7 1239 277.8C1298 277 1357 279 1416 276C1475 273 1534 265 1593 263.2C1652 261.3 1711 265.7 1740.5 267.8L1770 270L1770 301L1740.5 301C1711 301 1652 301 1593 301C1534 301 1475 301 1416 301C1357 301 1298 301 1239 301C1180 301 1121 301 1062 301C1003 301 944 301 885 301C826 301 767 301 708 301C649 301 590 301 531 301C472 301 413 301 354 301C295 301 236 301 177 301C118 301 59 301 29.5 301L0 301Z" fill="#4e54c8"></path></svg>