<svg id="visual" viewBox="0 0 960 240" width="960" height="240" xmlns="http://www.w3.org/2000/svg" xmlns:xlink="http://www.w3.org/1999/xlink" version="1.1"><path d="M0 194L32 198.5C64 203 128 212 192 214.2C256 216.3 320 211.7 384 205.2C448 198.7 512 190.3 576 179C640 167.7 704 153.3 768 153C832 152.7 896 166.3 928 173.2L960 180L960 0L928 0C896 0 832 0 768 0C704 0 640 0 576 0C512 0 448 0 384 0C320 0 256 0 192 0C128 0 64 0 32 0L0 0Z" fill="#2ec4b6"></path><path d="M0 180L32 164.5C64 149 128 118 192 112.7C256 107.3 320 127.7 384 129C448 130.3 512 112.7 576 104.7C640 96.7 704 98.3 768 107.3C832 116.3 896 132.7 928 140.8L960 149L960 0L928 0C896 0 832 0 768 0C704 0 640 0 576 0C512 0 448 0 384 0C320 0 256 0 192 0C128 0 64 0 32 0L0 0Z" fill="#2ab4a6"></path><path d="M0 125L32 122.5C64 120 128 115 192 116.2C256 117.3 320 124.7 384 130.5C448 136.3 512 140.7 576 141.8C640 143 704 141 768 139.7C832 138.3 896 137.7 928 137.3L960 137L960 0L928 0C896 0 832 0 768 0C704 0 640 0 576 0C512 0 448 0 384 0C320 0 256 0 192 0C128 0 64 0 32 0L0 0Z" fill="#26a497"></path><path d="M0 61L32 68.3C64 75.7 128 90.3 192 87.7C256 85 320 65 384 62C448 59 512 73 576 76.8C640 80.7 704 74.3 768 74.5C832 74.7 896 81.3 928 84.7L960 88L960 0L928 0C896 0 832 0 768 0C704 0 640 0 576 0C512 0 448 0 384 0C320 0 256 0 192 0C128 0 64 0 32 0L0 0Z" fill="#229488"></path><path d="M0 62L32 56.3C64 50.7 128 39.3 192 34C256 28.7 320 29.3 384 30.3C448 31.3 512 32.7 576 35.7C640 38.7 704 43.3 768 46.3C832 49.3 896 50.7 928 51.3L960 52L960 0L928 0C896 0 832 0 768 0C704 0 640 0 576 0C512 0 448 0 384 0C320 0 256 0 192 0C128 0 64 0 32 0L0 0Z" fill="#1e857a"></path></svg>